<?xml version="1.0" encoding="UTF-8" standalone="no"?>
<!-- Created with Inkscape (http://www.inkscape.org/) -->

<svg
   width="149mm"
   height="189mm"
   viewBox="0 0 149 189"
   version="1.1"
   id="svg5"
   xml:space="preserve"
   inkscape:version="1.2.2 (732a01da63, 2022-12-09)"
   sodipodi:docname="handPoses_obliquely.svg"
   inkscape:export-filename="Full_Side.png"
   inkscape:export-xdpi="96"
   inkscape:export-ydpi="96"
   xmlns:inkscape="http://www.inkscape.org/namespaces/inkscape"
   xmlns:sodipodi="http://sodipodi.sourceforge.net/DTD/sodipodi-0.dtd"
   xmlns="http://www.w3.org/2000/svg"
   xmlns:svg="http://www.w3.org/2000/svg"><sodipodi:namedview
     id="namedview7"
     pagecolor="#ffffff"
     bordercolor="#eeeeee"
     borderopacity="1"
     inkscape:showpageshadow="0"
     inkscape:pageopacity="1"
     inkscape:pagecheckerboard="false"
     inkscape:deskcolor="#505050"
     inkscape:document-units="mm"
     showgrid="false"
     inkscape:zoom="0.35355339"
     inkscape:cx="50.911688"
     inkscape:cy="205.06097"
     inkscape:window-width="1440"
     inkscape:window-height="890"
     inkscape:window-x="214"
     inkscape:window-y="1073"
     inkscape:window-maximized="1"
     inkscape:current-layer="layer3"
     showguides="false"
     inkscape:pageshadow="2"><inkscape:grid
       type="xygrid"
       id="grid515"
       originx="0"
       originy="0" /><sodipodi:guide
       position="160.66239,27.168302"
       orientation="0,-1"
       id="guide1784"
       inkscape:locked="false" /></sodipodi:namedview><defs
     id="defs2" /><g
     inkscape:groupmode="layer"
     id="layer1"
     inkscape:label="Layer 1"
     style="display:none"><path
       id="path3264"
       style="fill:none;fill-opacity:1;stroke:#000000;stroke-width:1;stroke-linecap:round;stroke-linejoin:round;stroke-miterlimit:5;stroke-dasharray:none;stroke-dashoffset:0.793701"
       d="m 99.016676,80.284425 c 0,0 0.724969,-0.818513 0.935445,-1.520095 0.210469,-0.701585 0.608039,-1.520097 0.701579,-3.811934 0.0935,-2.291834 2.22168,-8.676235 2.5257,-9.705223 0.30402,-1.028989 0.53788,-2.61924 0.58465,-3.227279 0.0468,-0.608039 -0.3274,-2.128134 -0.44433,-3.718388 -0.11693,-1.590255 -0.6782,-5.565889 -0.77174,-6.828737 -0.0935,-1.262849 -0.14032,-2.946646 -0.11694,-3.203893 0.0234,-0.257246 -1.19268,-2.946646 -2.0112,-5.495729 -0.818512,-2.549083 -1.566864,-4.794147 -2.104747,-6.010225 -0.537879,-1.216075 -1.286232,-2.970032 -1.473321,-5.308639 -0.18709,-2.33861 0.491106,-3.554685 0.865285,-4.279654 0.374177,-0.724969 0.397563,-0.795127 0.397563,-0.795127 0,0 0.654811,-0.982215 1.286236,-1.520095 0.631424,-0.53788 2.198294,-1.379779 3.975634,-1.005602 1.77734,0.374178 3.22728,1.683798 3.88209,3.040191 0.65481,1.356393 0.17225,1.714077 1.06522,3.533087 0.89297,1.819011 2.57969,4.067969 3.37344,5.09323 0.79375,1.02526 1.98437,2.083593 2.51354,4.729427 0.52917,2.645833 1.42214,5.126302 2.14974,7.011458 0.72761,1.885156 1.05833,3.175 1.52136,6.35 0.46302,3.175 1.15755,5.32474 1.75286,7.011458 0.59531,1.686719 0.82682,3.803386 0.33073,5.986198 -0.49609,2.182813 -1.02526,3.571875 -1.15755,6.085417 -0.13229,2.513542 -0.13229,3.042708 -1.32292,7.309115 -1.19062,4.266406 -2.11667,7.276041 -2.41432,10.451041 -0.29766,3.175 0.0661,6.581511 -0.42995,10.814843 -0.49609,4.23333 -0.92604,8.10287 -0.95912,10.78177 -0.0331,2.67891 -0.10879,11.75489 0.31216,16.4321 0.42095,4.67722 0.32741,7.9045 -0.18709,12.4414 -0.51449,4.5369 -0.60803,5.05139 -0.3274,8.79317 0.28063,3.74177 0.79512,7.95127 1.54348,11.17855 0.74835,3.22728 1.73057,6.92228 2.10475,8.41899 0.37417,1.49671 0.88666,12.71808 0.88666,12.71808 M 89.726822,73.190364 c 0,0 0.826823,-0.694532 0.992187,-1.389063 0.165365,-0.694531 0.198438,-1.157552 0,-1.918229 -0.198437,-0.760677 -0.661458,-3.604948 -0.264583,-6.449219 0.396875,-2.84427 0.56224,-4.530989 0.826823,-5.655468 0.264583,-1.124479 0.264583,-1.521354 0.198437,-2.315104 -0.06615,-0.79375 0.03307,-0.694532 -0.06615,-1.256771 -0.09922,-0.56224 -1.256771,-3.373438 -1.819011,-5.622396 -0.562239,-2.248958 -1.686719,-5.027083 -2.215885,-6.879167 -0.529167,-1.852083 -0.595313,-2.877343 -0.959115,-3.935677 -0.363802,-1.058333 -0.959114,-1.653645 -1.256771,-2.215885 -0.297656,-0.56224 -3.075781,-7.044531 -3.96875,-9.359635 -0.892968,-2.315104 -2.312749,-5.964788 -2.640155,-6.993775 -0.327406,-1.028988 -0.514493,-2.759558 -0.04677,-4.045793 0.467722,-1.286235 1.91766,-2.876488 2.970033,-3.484526 1.052374,-0.608038 2.595856,-1.449938 4.513513,-0.631425 1.917661,0.818513 2.712786,2.198292 3.110352,2.80633 0.397563,0.608039 1.584957,3.849449 2.18027,4.808564 0.595312,0.959114 2.215885,2.877343 3.141927,3.902604 0.926042,1.02526 2.371823,4.291494 2.629069,4.876146 0.257249,0.584653 0.257249,0.584653 0.257249,0.584653 M 75.770051,77.555989 c 0,0 0.56224,-0.06615 1.025261,-0.826823 0.46302,-0.760677 2.116666,-2.711979 2.38125,-3.208073 0.264583,-0.496094 0.661458,-1.5875 0.595312,-2.215886 -0.06615,-0.628385 -0.165365,-1.719791 -0.463021,-2.546614 -0.297656,-0.826823 -1.653646,-4.20026 -2.017448,-7.739063 -0.363802,-3.538802 -0.264583,-5.78776 -0.198437,-6.647656 0.06615,-0.859896 -0.03307,-0.959114 -0.297656,-1.885156 -0.264584,-0.926042 -1.653646,-5.225521 -2.38125,-7.110677 -0.727605,-1.885156 -2.050521,-4.960937 -2.645834,-7.011458 -0.595312,-2.050521 -0.992187,-3.671094 -1.190625,-4.464844 -0.198437,-0.79375 -1.167706,-2.047893 -1.775745,-3.170425 -0.608039,-1.122532 -1.777344,-4.022408 -2.245064,-5.3788 -0.467723,-1.356392 -3.274052,-6.735192 -3.648229,-8.512534 -0.374179,-1.777342 -0.420949,-3.414368 0.608037,-4.95785 1.028988,-1.543481 2.1166,-2.4543489 3.75371,-2.8016145 1.637109,-0.3472656 2.794661,-0.066146 3.40651,0.2976563 0.611849,0.363802 2.194213,3.3458572 2.802252,4.2813012 0.608039,0.935443 2.423269,3.176641 3.1178,4.003464 0.694531,0.826823 1.256771,1.389063 1.488281,1.455209 0.231511,0.06614 0.496094,0.23151 0.496094,0.23151 M 71.172916,184.81146 c 0,0 -0.79375,-3.96875 -0.926042,-6.08542 -0.132292,-2.11667 -0.396875,-4.49792 -1.058333,-6.35 -0.661459,-1.85208 -1.984375,-6.15156 -2.116667,-8.33438 -0.132292,-2.18281 -0.760677,-5.95312 -1.686719,-7.34218 -0.926041,-1.38907 -2.414322,-3.40651 -3.63802,-4.16719 -1.223698,-0.76068 -3.094837,-2.20655 -5.48022,-4.6387 -2.38538,-2.43215 -4.162721,-4.72399 -6.92228,-8.32544 -2.759557,-3.60146 -4.95785,-6.57149 -5.612659,-7.53032 -0.65481,-0.95883 -1.870887,-2.66602 -2.80633,-3.55469 -0.935445,-0.88867 -3.553251,-3.13679 -4.561975,-4.57546 -1.008724,-1.43867 -2.33164,-3.7207 -3.290755,-6.46575 -0.959114,-2.74506 -2.133129,-5.53952 -3.583064,-7.87813 -1.449938,-2.33861 -2.432153,-3.67161 -3.461141,-5.58927 -1.028988,-1.91766 -1.403165,-2.8531 -2.385381,-4.256269 -0.982215,-1.403168 -1.941045,-3.203895 -2.338608,-4.279654 -0.397563,-1.075761 -0.631424,-2.26845 -0.771741,-3.297439 -0.140316,-1.028988 0.203737,-3.14195 0.137592,-4.067992 -0.06615,-0.926042 -1.124479,-3.803385 -1.35599,-4.795573 -0.23151,-0.992187 -0.826823,-3.604948 -0.959114,-4.729427 -0.132292,-1.124479 -0.198438,-2.248958 0.264583,-3.307292 0.463021,-1.058333 1.445207,-2.790798 3.152392,-3.164974 1.707184,-0.374179 3.741773,0.02339 5.332028,1.075758 1.590252,1.052375 3.537585,2.965649 5.323522,6.223331 1.785938,3.257682 3.49303,7.901863 3.984138,8.509902 0.491107,0.608039 0.912056,1.496711 0.982216,1.894274 0.07016,0.397563 -0.140317,0.537879 0.35079,1.543481 0.491109,1.005602 1.426551,3.507912 2.011203,4.232881 0.584653,0.724969 5.636046,6.969053 6.150542,7.413393 0.514492,0.44433 2.128133,2.19829 2.50231,2.52569 0.374176,0.32741 0.514493,0.5145 1.005602,0.63143 0.491106,0.11693 0.818512,0.18709 1.426551,0.25724 0.608039,0.0702 1.645372,0.40916 2.273757,-0.41767 0.628386,-0.82682 1.455209,-2.08359 2.182813,-2.61276 0.727604,-0.52916 2.678906,-0.95911 3.042708,-3.00963 0.363802,-2.050523 0.661459,-4.564065 0.959115,-5.42396 0.297656,-0.859896 -0.09922,-1.322917 0,-2.315104 0.09922,-0.992188 1.157552,-6.151563 1.190625,-7.408334 0.03307,-1.256771 0,-2.745052 0.165364,-3.439583 0.165365,-0.694531 0.529167,-1.554427 0.396875,-2.579687 -0.132291,-1.025261 -1.190625,-4.7625 -1.620572,-7.904427 -0.429948,-3.141928 -0.694532,-6.250782 -0.760678,-8.334375 -0.06615,-2.083594 0.04961,-2.513542 -0.148828,-3.026172 -0.198437,-0.51263 -1.670182,-5.969662 -2.497005,-8.946224 -0.826823,-2.976563 -1.785937,-6.184635 -1.984375,-7.110677 -0.198437,-0.926042 -0.330729,-1.223698 -0.496094,-1.604036 -0.165364,-0.380339 -1.464243,-3.944247 -2.563389,-8.808551 -1.099145,-4.864306 -1.870887,-6.594877 -1.216078,-8.60608 0.654812,-2.011203 1.496711,-3.180507 3.016806,-4.045792 1.520095,-0.865285 3.578071,-1.169304 4.700603,0.467722 1.122532,1.637026 2.712786,4.887691 3.461139,5.963452 0.748356,1.075759 2.15152,3.133735 2.970033,4.677217 0.818515,1.543481 2.993419,6.92228 3.788547,8.559305 0.795126,1.637027 2.726063,5.678794 4.065516,7.646633 1.339453,1.967838 2.761589,6.928776 3.075781,7.9375 0.314193,1.008724 2.166364,7.264071 2.6107,9.859925 0.444336,2.595856 1.566868,7.810952 1.566868,7.810952" /><path
       id="path3327"
       style="fill:none;fill-opacity:1;stroke:#000000;stroke-width:0.5;stroke-linecap:round;stroke-linejoin:round;stroke-miterlimit:5;stroke-dasharray:none;stroke-dashoffset:0.793701"
       d="m 50.794573,108.23079 c 0,0 0.420949,0.23387 -0.514493,0.88867 -0.935445,0.65481 -1.028988,0.93545 -2.291837,1.59026 -1.262848,0.65481 -2.057974,1.1693 -3.086962,1.87089 -1.028989,0.70158 -1.637028,1.30962 -2.478926,2.43215 -0.841899,1.12253 -1.122532,1.54348 -1.496709,2.61924 -0.647277,1.94837 -1.061843,3.16388 -0.701582,5.65943 m 3.788545,-18.28792 c 0,0 -0.935443,0.93545 -1.543481,1.40317 -0.608039,0.46772 -1.169305,0.98221 -1.964431,1.59025 -0.795129,0.60804 -0.888672,0.65481 -2.011204,1.63703 -1.122532,0.98221 -2.19829,2.80633 -2.19829,2.80633 m -3.835318,-10.71083 c 0,0 1.449935,-0.37417 2.38538,-0.98221 0.935442,-0.60804 1.028988,-0.935446 1.683797,-1.403168 0.65481,-0.467723 1.637025,-1.075759 1.637025,-1.075759 M 36.06134,92.094395 c 0,0 -0.935442,0.140317 -1.496708,0.561266 -0.561266,0.42095 -1.449938,0.654812 -1.964431,1.122532 -0.514495,0.467723 -0.701582,0.935445 -1.777344,1.403168 -1.075758,0.467719 -2.478923,0.888669 -2.478923,0.888669 M 71.437499,33.039843 c 0,0 0.661458,-0.661458 1.422135,-1.091406 0.760678,-0.429948 1.752865,-0.661458 2.414323,-0.760677 0.661459,-0.09922 1.5875,-0.132292 1.5875,-0.132292 M 54.43802,42.465624 c 0,0 0.56224,-0.727604 0.992188,-0.992187 0.429948,-0.264583 1.521354,-0.56224 2.315104,-0.628385 0.79375,-0.06615 2.844271,-0.363803 2.844271,-0.363803 m 59.381027,24.017568 -0.37418,0.491109 -0.44434,0.23386 m 0.91206,0.327406 c 0,0 -0.11693,0.257246 -0.44433,0.397563 -0.32741,0.140316 -1.21608,0.257246 -1.21608,0.257246 M 87.246353,36.5125 c 0,0 2.14974,-0.264584 3.075781,-0.496094 0.926042,-0.231511 1.984375,-1.058334 1.984375,-1.058334 m 12.954251,12.726152 c 0,0 1.16931,0.420949 2.05798,0.397563 0.88867,-0.02339 1.44994,-0.280633 1.44994,-0.280633 m -6.24409,0.280633 c 0,0 -0.0936,0 0.65481,0.09355 0.74836,0.09354 1.77734,0.327403 1.77734,0.327403 m 0.28063,16.837976 c 0,0 0,0.18709 1.12254,0.514496 1.12253,0.327403 1.96443,0.233859 1.96443,0.233859 m -3.41437,-2.946646 c 0,0 1.54348,-0.280633 2.05797,0.18709 0.5145,0.46772 0.5145,0.280633 1.16931,0.935442 0.65481,0.65481 1.40316,1.075759 1.73057,1.216075 0.3274,0.140317 0.98222,0.467723 0.98222,0.467723 M 93.216927,55.378246 c 0,0 -0.280633,-0.09355 0.888672,0.140317 1.169305,0.23386 1.824114,0.04677 2.057977,0 0.23386,-0.04677 0.420949,0 0.420949,0 m -3.975634,-1.028989 c 0,0 0.654809,-0.187089 1.590252,-0.420949 0.935445,-0.23386 1.637027,-0.09354 2.432153,-0.04677 0.795128,0.04677 1.496711,0.654812 1.496711,0.654812 M 78.581249,50.667708 c 0,0 0.661458,-0.529167 1.785937,-0.529167 1.12448,0 2.38125,0.396875 2.38125,0.396875 m -3.571874,2.778125 c 0,0 0.661458,0.396875 1.852083,-0.06615 1.190625,-0.463021 2.579687,-1.190625 2.579687,-1.190625 M 60.258853,58.40677 c 0,0 0.529167,-0.463021 1.785938,-0.661458 1.256771,-0.198438 2.844271,0 2.844271,0 m -3.836459,2.778125 c 0,0 1.455209,0.463021 2.910417,0.06615 1.455208,-0.396875 3.505729,-1.984375 3.505729,-1.984375 m -2.447396,19.44687 c 0,0 0.992188,-0.992187 2.315104,-1.25677 1.322917,-0.264584 2.050521,-0.595313 2.844271,-0.33073 0.79375,0.264584 1.5875,0.79375 1.5875,0.79375 m 10.781771,-6.283854 c 0,0 0.595312,-0.06615 1.852083,0.132292 1.256771,0.198437 2.182813,0.463021 2.182813,0.463021 m 5.688541,1.918229 c 0,0 0.529167,0.463021 1.719792,0.463021 1.190625,0 2.248958,0.132291 2.248958,0.132291 m -2.778125,5.820834 c 0,0 1.389063,-0.926042 2.050521,-1.256771 0.661458,-0.330729 1.256771,-0.529167 1.256771,-0.529167 m 3.902607,5.622396 c 0,0 0.85989,1.852083 2.44739,3.042708 1.5875,1.190625 4.10104,2.711979 5.09323,3.042709 0.99219,0.330729 1.85209,0.727604 1.85209,0.727604 M 76.799897,82.693191 c 0,0 0.748355,5.519116 2.338609,7.857723 1.590255,2.33861 3.367596,5.051396 5.051394,6.828737 1.683797,1.777341 4.677216,5.706209 6.641647,6.922279 1.964431,1.21608 6.005952,3.64807 8.519493,4.83869 2.51354,1.19063 3.83646,1.98438 3.83646,1.98438 M 62.58116,94.479776 c 0,0 5.144936,2.432153 7.296456,3.461141 2.151521,1.028988 5.238483,2.619243 6.735194,3.461143 1.496708,0.8419 5.144937,3.1805 5.144937,3.1805 m -13.938105,37.979 c 0,0 1.590255,-4.8643 2.525697,-7.10937 0.935442,-2.24506 3.835318,-8.60607 4.30304,-12.2543 0.46772,-3.64823 0,-12.06722 -1.870887,-16.55735 -1.870887,-4.49013 -5.799749,-7.670635 -5.799749,-7.670635 m 2.01236,60.044675 c 0,0 3.307292,0.72761 4.696354,1.45521 1.389063,0.7276 7.077604,2.51354 8.598959,3.70417 1.521354,1.19062 4.894791,2.05052 5.820833,2.18281 0.926042,0.13229 6.746875,1.98437 10.120312,1.71979 3.373439,-0.26458 5.225519,-1.52135 5.225519,-1.52135" /></g><g
     inkscape:groupmode="layer"
     id="layer2"
     inkscape:label="Layer 2"
     style="display:none"><path
       id="path3167"
       style="fill:none;fill-opacity:1;stroke:#000000;stroke-width:1;stroke-linecap:round;stroke-linejoin:round;stroke-miterlimit:5;stroke-dasharray:none;stroke-dashoffset:0.793701"
       d="m 94.884535,40.833703 c 0,0 -0.560578,-5.611047 -0.560578,-6.537089 0,-0.926042 0.03307,-3.704166 0.165365,-5.754687 0.132291,-2.050521 0.388019,-4.313945 0.692039,-5.29616 0.304016,-0.982216 1.379778,-2.174906 2.08136,-2.759558 0.701583,-0.584652 2.501731,-0.923579 3.791579,-0.658996 1.28984,0.264584 2.56315,1.852084 2.94349,2.960026 0.38033,1.107943 0.3743,4.013213 0.7017,4.761566 0.32741,0.748356 1.16931,2.782946 1.70719,4.396584 0.53788,1.613641 0.53788,3.835318 0.8419,5.682819 0.30402,1.8475 1.21608,6.290857 1.35639,7.881109 0.14032,1.590254 0.44434,2.736173 0.72497,3.765161 0.28063,1.028988 0.3274,3.250666 0.51449,4.864306 0.18709,1.613639 0.37106,2.167856 0.40414,4.863299 0.0331,2.695442 -0.23151,4.299479 -0.0992,5.440494 0.13229,1.141016 0.1819,3.505729 0.0331,5.820834 -0.14883,2.315104 -0.42995,6.201171 -0.59531,7.60677 -0.16537,1.405599 -0.38034,2.761589 -0.41341,3.836459 -0.0331,1.074869 0.26458,2.629296 0.57877,3.869531 0.3142,1.240234 0.51291,4.039301 0.51291,6.097275 0,2.057977 0.49111,2.525697 -0.63142,5.659432 -1.12253,3.133732 -1.0056,3.624842 -1.35639,5.542502 -0.35079,1.91766 -0.39757,3.57807 -0.37418,5.68282 0.0234,2.10475 -0.25725,5.19171 -0.58465,7.88111 -0.32741,2.6894 -0.65481,5.96345 -0.70159,7.78756 -0.0468,1.82412 0.0234,17.30571 -0.0701,22.82482 -0.0935,5.51912 1.59025,14.31229 1.59025,18.89596 0,4.58367 0.8419,9.9157 0.79513,13.47038 -0.0468,3.55469 0.0468,5.98684 0.0468,5.98684 M 77.655207,36.446354 c 0,0 -0.03307,-3.935677 -0.09922,-4.828646 -0.06615,-0.892969 -0.09922,-2.182813 -0.33073,-2.778125 -0.23151,-0.595313 -0.661458,-1.951302 -0.79375,-2.711979 -0.132291,-0.760677 -0.661458,-4.894792 -0.826822,-6.217708 -0.165365,-1.322917 -0.760678,-5.622396 -0.79375,-6.746875 -0.03307,-1.124479 0.297656,-2.579688 0.959114,-3.5718753 0.661458,-0.9921875 1.86862,-2.3647135 3.803385,-2.4473958 1.934766,-0.082682 3.727792,0.6672019 4.452761,1.766348 0.724969,1.0991461 1.052375,2.4087661 1.216078,3.1805071 0.163703,0.771741 0.327403,2.712786 2.057974,5.893293 1.73057,3.180508 1.59975,3.182768 1.748578,4.042664 0.148828,0.859896 0.132292,2.480469 1.322917,5.721615 1.190625,3.241146 3.158463,7.970573 3.489192,9.624218 0.330729,1.653646 1.091407,3.307292 1.35599,4.7625 0.264583,1.455209 0.926042,4.464844 1.389062,8.003646 0.463021,3.538802 0.628386,6.217708 0.859896,8.632031 0.231511,2.414323 0.56224,5.390886 0.330729,8.73125 -0.23151,3.340365 -0.529166,5.192448 -0.165364,7.606771 0.363802,2.414323 0.595312,3.274219 0.727604,3.935677 0.132292,0.661458 0.132292,0.694531 0.132292,0.694531 m -34.997928,0.101288 c 0,0 0.795129,-0.935442 1.309622,-1.777344 0.514495,-0.841899 1.122531,-1.637025 1.309621,-2.50231 0.187089,-0.865285 0.628687,-1.377884 0.364104,-4.321373 -0.264584,-2.94349 -0.529167,-6.11849 -0.363802,-8.73125 0.165364,-2.612761 0.363802,-5.258594 0.330729,-6.11849 -0.03307,-0.859896 -0.330729,-2.579687 -0.529167,-3.604948 -0.198437,-1.02526 -0.23151,-3.241145 -0.363802,-4.001823 -0.132292,-0.760677 -0.79375,-5.060156 -0.959115,-6.680729 -0.165364,-1.620573 -0.363802,-3.770312 -0.396875,-4.729427 -0.03307,-0.959114 -0.03307,-1.81901 -0.03307,-1.81901 0,0 -0.56224,-1.02526 -0.79375,-2.083594 -0.231511,-1.058333 -0.694532,-4.927864 -0.595313,-7.805208 0.09922,-2.877344 0.165365,-4.299479 0.03307,-6.184635 -0.132292,-1.885157 -0.132292,-3.009636 0.363802,-4.233334 0.496094,-1.223698 1.785938,-2.84427 3.241146,-3.373437 1.455208,-0.529167 2.811198,-0.595313 4.167187,-0.03307 1.35599,0.56224 2.620838,2.16816 2.761155,3.150375 0.140316,0.982216 -0.07016,3.297438 0.327406,5.238483 0.397563,1.941045 1.379778,4.677217 1.800728,5.823135 0.420949,1.145918 0.420949,2.970033 0.584652,4.139337 0.163703,1.169303 1.438299,6.25492 2.331268,8.86768 0.892968,2.61276 2.414322,7.209896 3.108854,8.764323 0.694531,1.554427 1.389062,4.927864 1.620573,7.14375 0.23151,2.215885 1.03089,9.48486 0.703484,14.02176 0,0 -0.505045,4.002977 -0.471972,6.18579 0.03307,2.182812 0.429948,4.398698 0.429948,4.398698 m -25.1214,103.867002 c 0,0 -0.09355,-4.86431 0.09354,-6.73519 0.187089,-1.87089 0.187089,-7.76418 -0.280633,-9.16735 -0.467723,-1.40316 -1.381356,-1.97488 -2.505835,-5.67905 -1.124479,-3.70416 -2.182812,-10.31875 -2.645833,-15.41198 -0.463021,-5.09323 -2.331879,-12.86556 -3.173778,-21.84582 -0.841898,-8.98025 -0.701582,-11.36563 -1.216077,-16.60412 -0.514493,-5.23848 -0.561266,-7.85772 -0.608037,-10.476962 -0.04677,-2.61924 0.23386,-5.051394 0.42095,-6.548104 0.187087,-1.496709 0.374176,-2.198291 -0.09355,-4.022405 -0.46772,-1.824114 -1.824115,-6.548104 -2.338608,-9.073801 -0.514495,-2.525696 -0.841898,-5.051396 -1.449937,-6.87551 -0.608039,-1.824114 -1.964431,-5.238483 -2.712786,-8.793165 -0.748353,-3.554685 -1.777342,-8.044815 -2.011204,-9.167347 -0.23386,-1.122531 -1.071404,-3.496407 -1.36906,-4.687032 -0.297656,-1.190625 -0.79375,-5.986198 -1.025261,-7.375261 -0.23151,-1.389062 -0.727604,-3.373437 -0.429947,-4.927864 0.297656,-1.554427 1.322916,-2.811198 1.951302,-3.208073 0.628385,-0.396875 1.455208,-0.959115 2.61276,-1.157552 1.157552,-0.198438 2.480469,0.297656 3.307292,1.02526 0.826823,0.727604 1.653645,1.951302 2.182812,3.902604 0.529167,1.951302 1.376183,4.781651 2.147922,5.997726 0.771742,1.216075 1.356394,2.829716 1.683798,4.115951 0.327406,1.286235 1.195363,4.967573 2.650572,7.977208 1.455208,3.009636 3.312879,6.124599 4.271708,7.831783 0.958832,1.707185 2.011204,4.60706 2.432153,6.337628 0.42095,1.730571 2.275435,8.402855 2.606165,9.940745 0.330729,1.537891 1.158996,4.137679 1.158996,4.137679"
       sodipodi:nodetypes="csssssssssssssscscssssssssssccsssssssssssssssssssccssssssssscssssssssssssscsccssssssssssssssssssssssssssc" /><path
       id="path3255"
       style="fill:none;fill-opacity:1;stroke:#000000;stroke-width:0.499999;stroke-linecap:round;stroke-linejoin:round;stroke-miterlimit:5;stroke-dasharray:none;stroke-dashoffset:0.793701"
       d="m 58.605208,167.28281 c 0,0 0.595312,0.59531 1.124479,0.7276 0.529166,0.1323 1.653646,0.39688 2.844271,0.26459 1.190625,-0.13229 3.571874,-0.39688 3.571874,-0.39688 m -7.680623,-20.35871 c 0,0 1.96443,1.77735 3.554685,2.05798 1.590254,0.28063 3.741771,0.74835 5.144936,0.8419 1.403168,0.0935 2.525699,0 4.49013,0 m 22.170006,34.70495 c 0,0 1.777344,-3.27406 1.309622,-4.95785 -0.467723,-1.6838 -0.561266,-3.74178 -0.654812,-5.33203 -0.09354,-1.59025 0.748355,-5.51912 0.748355,-5.51912 m -10.664052,13.84457 c 0,0 -1.122535,-4.86431 -1.496711,-6.08039 -0.374177,-1.21607 -0.467723,-3.46114 -1.403165,-4.95785 -0.935442,-1.49671 -1.777341,-3.64822 -1.777341,-3.64822 M 66.650337,78.062745 c 0,0 0.140317,1.964433 0.09354,2.806332 -0.04677,0.841899 -0.748354,2.291834 -0.748354,2.291834 m 40.878877,-28.156844 0.98222,0.04677 m -3.64823,-0.795123 c 0,0 0.60803,-0.327406 1.30962,-0.514495 0.70158,-0.187087 1.40316,-0.23386 1.73057,-0.187087 0.3274,0.04677 0.93544,0.23386 0.93544,0.23386 m -3.88209,1.683798 c 0,0 0.60804,0.514492 0.93544,0.608039 0.32741,0.09354 0.88868,0.374176 1.40317,0.420949 0.51449,0.04677 1.82412,0.09354 1.82412,0.09354 m -4.86431,-20.158799 1.02899,0.187087 m 0.8419,-1.590254 c 0,0 -1.44994,-0.23386 -1.91766,-0.140317 -0.46772,0.09355 -1.26285,0.280636 -1.26285,0.280636 m -7.5104,3.322944 c 0,0 0.46302,0.595313 0.926041,0.661459 0.463021,0.06615 0.529167,0.06615 0.529167,0.06615 m -5.731394,11.945525 c 1.33698,-0.553339 2.790284,-0.789595 4.232806,-0.7934 0.691168,0.118174 1.294586,0.499446 1.941116,0.746632 m -4.583671,0.93544 1.870888,-0.04677 m -4.256268,1.075758 c 0,0 0.935445,0.23386 1.824115,0.280633 0.888671,0.04677 1.356394,0 2.198293,-0.04677 0.841899,-0.04677 2.712786,-0.561266 2.712786,-0.561266 m -21.187793,2.245061 c 0,0 0.374179,0.42095 1.637027,0.467723 1.262848,0.04677 3.414368,0 3.414368,0 m -6.735193,-1.496709 c 0,0 0.982215,-0.467722 1.449938,-0.608039 0.467722,-0.140316 1.590254,-0.420949 2.806329,-0.327406 1.216078,0.09355 2.245064,0.514496 2.245064,0.514496 m -13.432023,2.272951 c 0,0 0.56224,0.363802 0.760677,0.363802 h 0.330729 m 9.721377,-27.192142 c 0,0 0.140316,0.18709 0.46772,0.18709 0.327406,0 1.122534,-0.18709 1.122534,-0.18709 m 6.781964,-4.022406 c 0,0 0.140316,-0.233861 0.795126,-0.374177 0.654809,-0.140317 1.169305,0 1.169305,0 m 0.935442,1.169304 c 0,0 -0.467722,0.280633 -0.935442,0.514494 -0.467723,0.233862 -0.841899,0.233862 -1.356395,0.280632 -0.514493,0.04677 -1.683797,-0.140316 -1.683797,-0.140316 M 71.631574,33.32517 c 0,0 0.304019,-0.140316 0.537879,-0.18709 0.23386,-0.04677 0.537879,-0.07016 0.537879,-0.07016 m -1.00525,-1.08641 c 0,0 1.021939,-0.481902 1.650322,-0.448832 0.768573,-0.06403 0.912619,-0.04583 1.491605,0.08503 M 64.19453,35.520312 c 0,0 0.595313,0.132292 0.892969,0.165365 0.297656,0.03307 0.396875,-0.03307 0.694531,-0.09922 0.297657,-0.06615 0.56224,-0.165365 0.56224,-0.165365 m 36.41328,-14.022915 c 0,0 -1.02526,-0.165365 -1.52135,-0.06615 -0.4961,0.09922 -1.19063,0.297656 -1.521358,0.628385 -0.330729,0.33073 -0.727604,0.727605 -0.826822,1.157552 -0.09922,0.429948 -0.03307,0.826823 0.09922,1.190625 0.132292,0.363803 -0.06615,0.628386 0.496094,0.661459 0.562236,0.03307 1.058336,0.09922 1.554426,0.03307 0.49609,-0.06615 0.92604,-0.03307 1.35599,-0.06615 0.42995,-0.03307 1.42213,0.06615 1.42213,0.06615 M 83.641405,8.8635416 c 0,0 -1.223698,-0.396875 -2.248958,-0.1984375 -1.025261,0.1984375 -1.951302,0.3307291 -2.348177,0.8268229 -0.396875,0.4960937 -0.760677,1.289844 -0.694531,1.918229 0.06615,0.628386 0.06615,0.992188 0.396875,1.488281 0.330729,0.496094 0.330729,0.661459 0.760677,0.826823 0.429948,0.165365 2.182812,0.132292 2.910416,-0.03307 0.727604,-0.165364 2.94349,-0.297656 2.94349,-0.297656 M 71.88882,13.142979 c 0,0 -1.449938,-0.04677 -2.338607,0 -0.888672,0.04677 -1.262848,0.09354 -1.824114,0.327405 -0.561269,0.233861 -0.888672,0.514494 -1.169305,1.216076 -0.280633,0.701583 -0.467723,0.982216 -0.374179,1.730571 0.09355,0.748354 0.187089,1.637025 0.374179,2.104747 0.187087,0.467722 0.140316,0.935443 0.795126,1.262848 0.654812,0.327406 1.309621,0.467722 1.870887,0.467722 0.561266,0 0.420949,0.09354 1.543481,0 1.122532,-0.09354 2.712786,-0.140316 2.712786,-0.140316 M 47.426558,37.868489 h 0.06615 c 0,0 -0.628386,0.231511 -1.620573,0.396875 -0.992188,0.165368 -2.877344,0.463021 -3.538802,0.198438 -0.661459,-0.264584 -1.058334,-0.463021 -1.521354,-0.79375 -0.463018,-0.33073 -0.429948,-1.322917 -0.429948,-1.322917 0,0 -0.09922,-0.760677 -0.09922,-1.02526 0,-0.264583 0.23151,-0.661458 0.330729,-0.826823 0.09922,-0.165364 0.330729,-0.264583 0.79375,-0.463021 0.463021,-0.198437 0.496093,-0.198437 1.124479,-0.330729 0.628385,-0.132292 2.943489,-0.198437 2.943489,-0.198437 m 0.642098,14.812784 c 0,0 0.748355,-0.420949 1.449938,-0.701582 0.701582,-0.280633 1.683798,-0.327406 1.683798,-0.327406 m -4.115951,2.338607 c 0,0 1.216078,0.04677 2.432153,-0.23386 1.216075,-0.280633 1.777341,-0.935442 1.777341,-0.935442 m 4.564218,22.055491 c 0,0 0.727605,0.03307 1.157553,-0.06614 0.429947,-0.09922 1.157552,-0.396875 1.157552,-0.396875 m -4.353624,-1.80785 c 0,0 1.449935,-0.888672 2.104747,-1.028989 0.65481,-0.140316 1.590252,-0.23386 2.104748,-0.23386 0.514492,0 2.057974,0.23386 2.057974,0.23386 m -7.249687,3.554685 c 0,0 1.449938,-0.982215 2.57247,-1.356391 1.122532,-0.37418 2.291837,-0.841899 2.899875,-0.841899 H 57.43622 M 69.717707,104.775 c 0,0 0.132292,1.19062 1.058334,3.30729 0.926041,2.11667 2.38125,3.83646 2.645833,5.42396 0.264583,1.5875 0.132292,3.43958 1.190625,5.15937 1.058333,1.7198 1.984375,3.70417 1.984375,3.70417 m 7.672917,-19.84375 c 0,0 0.79375,3.30729 1.322916,4.49792 0.529167,1.19062 1.058334,3.70416 1.058334,5.42396 0,1.71979 0,4.10104 0.529166,5.55625 0.529167,1.4552 1.322917,3.43958 1.322917,3.43958 m 10.715625,-17.4625 c 0,0 -0.529167,6.08542 -0.264584,9.65729 0.264584,3.57188 0,8.20208 -0.264583,9.65729 l -0.264583,1.45521 M 98.54563,79.951061 c 0,0 1.125858,2.74213 1.96776,3.817889 0.8419,1.075762 1.82411,4.209495 1.40316,6.314244 -0.42095,2.104748 -1.87089,4.303038 -2.011202,6.688418 M 83.909268,79.746545 c 0,0 1.220418,3.531058 1.220418,4.721683 0,1.190625 0.264584,4.564063 -0.595312,6.548438 -0.859896,1.984374 -1.521354,5.357812 -1.521354,5.357812 M 64.405273,83.207684 c 0,0 2.291837,1.917661 2.432154,2.993419 0.140316,1.075759 0.795126,4.536901 0.795126,5.799749 0,1.262848 -0.09354,4.115951 -0.09354,4.115951" /></g><g
     inkscape:groupmode="layer"
     id="layer4"
     inkscape:label="Layer 4"
     style="display:none"><path
       id="path3071"
       style="fill:none;fill-opacity:1;stroke:#000000;stroke-width:1;stroke-linecap:round;stroke-linejoin:round;stroke-miterlimit:5;stroke-dasharray:none;stroke-dashoffset:0.793701"
       d="m 77.548252,77.174076 c 0,0 0.18709,-3.788545 0.701583,-6.688421 0.514495,-2.899873 1.449937,-7.062597 1.91766,-8.746394 0.46772,-1.683798 2.8531,-8.138359 4.022405,-11.225321 1.169305,-3.086963 2.527286,-6.758472 2.725724,-7.717586 0.198437,-0.959115 0.562239,-2.745052 0.79375,-4.53099 0.23151,-1.785937 0.926042,-4.101042 1.289844,-4.861719 0.363802,-0.760677 1.02526,-3.373437 1.289843,-4.99401 0.264584,-1.620573 0.760677,-3.836458 0.959115,-4.663281 0.198437,-0.826823 0.628385,-1.422136 1.256771,-1.852083 0.628385,-0.429948 2.255464,-1.314518 4.430368,-1.174201 2.174907,0.140316 4.697755,1.703367 4.697755,4.646857 0,2.943489 -0.59531,7.507552 -0.79375,11.1125 -0.19844,3.604947 -1.124478,6.383072 -1.587498,7.739062 -0.463021,1.35599 -0.396875,1.256771 -0.56224,2.61276 -0.165364,1.35599 -1.289844,7.011459 -1.984375,10.451042 -0.694531,3.439583 -1.653646,6.813021 -1.984375,8.896614 -0.330729,2.083594 -0.760677,6.416146 -1.488281,9.525 -0.727604,3.108854 -1.289844,4.927865 -1.488281,5.986198 -0.198438,1.058333 -0.198438,2.248958 0,2.877344 0.198437,0.628385 0.595312,2.050521 1.124479,2.745052 0.529166,0.694531 0.463021,0.727604 0.727604,0.826823 0.264583,0.09922 0.56224,-0.429948 1.389062,-2.711979 0.826823,-2.282032 2.480469,-7.176823 2.910417,-8.400521 0.429948,-1.223698 0.892969,-2.447396 1.752865,-3.803385 0.859893,-1.35599 3.226683,-5.146548 4.162133,-7.344839 0.93544,-2.198293 1.77734,-5.425572 2.15151,-7.343232 0.37418,-1.917658 1.40317,-4.162722 2.03459,-5.682816 0.63143,-1.520098 1.93744,-6.385103 2.26817,-7.14578 0.33073,-0.760677 0.86557,-1.249825 1.47361,-1.577231 0.60803,-0.327404 2.57246,-0.935443 4.23288,0.02339 1.66041,0.958829 2.5257,2.525697 2.64262,3.905475 0.11693,1.379781 -0.14031,5.004623 -0.6548,7.881112 -0.5145,2.876486 -0.88868,5.285253 -1.61365,8.302058 -0.72496,3.016806 -1.1693,5.636046 -2.1749,9.331047 -1.0056,3.694999 -3.40966,10.432587 -5.03024,16.121129 -1.62057,5.688541 -2.91041,9.028906 -3.10885,9.822656 -0.19844,0.793744 0.16536,1.124474 0.0331,2.711974 -0.13229,1.5875 -2.41432,15.18047 -2.8112,16.83412 -0.39687,1.65364 -1.65364,11.8401 -4.762495,20.17448 -3.108855,8.33437 -2.38125,7.54062 -2.910417,10.12031 -0.529167,2.57969 -1.719792,7.67292 -3.638021,11.90625 -1.918229,4.23333 -2.711979,4.69635 -2.711979,5.15937 0,0.46303 -0.198437,1.7198 -0.529167,2.57969 -0.330729,0.8599 -0.529166,1.52136 -0.46302,2.84427 0.06615,1.32292 -0.264584,6.15157 0.396875,10.64948 0.661458,4.49792 0.661458,4.56406 0.661458,4.56406 M 60.523183,74.929012 c 0,0 0.09355,-4.022407 0.233862,-5.940065 0.140317,-1.91766 0.04677,-4.30304 0.140317,-6.080382 0.09354,-1.777343 0.374176,-5.378799 0.888669,-8.699624 0.514496,-3.320825 0.608039,-6.033608 0.935445,-7.530319 0.327406,-1.496708 2.80633,-9.72861 3.928861,-12.488169 1.122532,-2.759557 2.151521,-6.641648 2.38538,-7.904495 0.233863,-1.262849 0.42095,-2.876489 0.701583,-3.554685 0.280633,-0.678196 1.567907,-4.045075 1.733272,-5.00419 0.165365,-0.959114 1.727869,-5.706636 2.756858,-6.87594 1.028986,-1.1693045 2.245063,-2.8531025 5.519115,-1.8708869 3.27405,0.9822154 4.209495,2.4321529 4.630444,3.8820899 0.42095,1.449937 -0.140316,4.583672 -0.888672,8.512534 -0.748355,3.928862 -1.216075,7.623863 -1.73057,9.447977 -0.514493,1.824114 -0.841899,2.198294 -0.841899,2.712786 0,0.514493 -1.403165,11.131775 -2.245064,15.949308 -0.841899,4.817534 -1.216075,5.799749 -1.122532,6.220698 0.09354,0.42095 0.23386,6.033612 -0.514493,10.664055 -0.748355,4.630444 -1.122531,7.390003 -0.701582,8.606079 0.420949,1.216077 1.262848,2.712786 1.917658,3.227279 0.654812,0.514495 0.654812,0.514495 0.654812,0.514495 M 45.607552,119.82318 c 0,0 0.496093,-3.50573 0.628385,-4.8948 0.132292,-1.38906 -0.264583,-6.91224 -0.264583,-9.35963 0,-2.4474 -1.12448,-7.606772 -1.12448,-10.715626 0,-3.108854 0.727605,-7.9375 0.198438,-11.707813 -0.529167,-3.770312 -1.455208,-8.466666 -1.455208,-12.567708 0,-4.101041 -0.79375,-6.945312 -0.926042,-10.186458 -0.132292,-3.241146 -0.396875,-9.128125 0.463021,-12.964583 0.859896,-3.836458 1.852083,-8.929687 1.918229,-10.252604 0.06615,-1.322917 -0.198438,-5.622396 0,-7.14375 0.198437,-1.521354 0.859896,-3.241146 1.488281,-5.78776 0.628386,-2.546615 0.826823,-5.622396 1.785938,-6.945313 0.959114,-1.322916 3.307291,-2.513541 5.324739,-2.149739 2.017448,0.363802 4.398698,1.488281 4.464844,4.696354 0.06615,3.208073 0.496094,7.739062 0.496094,12.36927 0,4.630209 -0.56224,4.960938 -0.496094,5.390886 0.06615,0.429948 0.760677,13.95677 0.727604,15.54427 -0.03307,1.5875 -0.09922,2.447396 -0.165365,2.579688 -0.06615,0.132292 0.826823,6.680729 0.992188,7.639844 0.165364,0.959114 0.595312,4.001822 0.694531,7.805208 0.09922,3.803385 -0.595312,5.721614 1.35599,7.441406 1.951302,1.719792 3.108854,1.951302 3.108854,1.951302 M 43.872292,181.94373 c 0,0 -0.841899,-5.14494 -0.654809,-7.20292 0.187087,-2.05797 0.280633,-6.45455 0.748353,-8.60607 0.467722,-2.15152 0.280633,-8.51254 0.280633,-12.06722 0,-3.55469 -0.374177,-5.33203 -1.309619,-8.32545 -0.935445,-2.99342 -0.654812,-12.06722 -0.374179,-15.34127 0.280633,-3.27405 0.748355,-7.48354 1.683798,-8.98026 0.935445,-1.4967 5.706205,-5.05139 6.828737,-6.5481 1.122532,-1.49671 3.561252,-5.20265 4.685731,-6.65786 1.124479,-1.45521 4.630208,-5.68854 6.548437,-7.9375 1.918229,-2.248956 5.225521,-5.754685 8.268229,-7.077602 3.042709,-1.322917 5.423959,-0.992187 7.276042,0.198437 1.852083,1.190625 5.16695,3.934963 4.69923,7.536425 -0.467722,3.60145 -2.57247,8.60607 -4.630446,11.22532 -2.057975,2.61924 -3.882089,5.65943 -5.893292,7.29645 -2.011204,1.63703 -3.832784,4.17045 -3.832784,4.17045" /><path
       id="path3158"
       style="fill:none;fill-opacity:1;stroke:#000000;stroke-width:0.499999;stroke-linecap:round;stroke-linejoin:round;stroke-miterlimit:5;stroke-dasharray:none;stroke-dashoffset:0.793701"
       d="m 55.097613,109.21301 c 0,0 -0.04677,-1.40317 0,-2.10475 0.04677,-0.70158 -0.04677,-1.35639 0.140317,-2.0112 0.187087,-0.65481 0.420949,-1.54348 0.420949,-1.54348 m 7.10937,-4.022409 -2.057977,-0.280633 -0.701582,-0.04677 m 16.985059,14.434772 c 0,0 1.785938,0.52917 2.182813,1.25677 0.396874,0.72761 1.322916,1.19063 1.852083,2.11667 0.529166,0.92604 1.455208,2.18281 1.984375,3.37344 0.529166,1.19062 2.447396,5.55625 2.447396,5.55625 M 42.702987,58.652298 h 0.608039 m -0.701582,1.122532 0.701582,0.04677 m 10.851142,-0.935442 1.169305,-0.23386 m 2.104747,0.841899 0.654812,-0.18709 m 0.701583,-2.011203 c 0,0 -0.327406,0.514495 -1.028989,0.982215 -0.701582,0.467723 -0.514493,0.42095 -1.309621,0.748356 -0.795126,0.327406 -0.888672,0.420949 -1.496708,0.561265 -0.608039,0.140317 -1.590255,0.23386 -1.590255,0.23386 m 4.907436,-23.408319 c 0,0 -0.374808,0.275248 -0.661458,0.429948 -1.041797,0.562239 -2.061299,0.586314 -2.061299,0.586314 m 2.590466,-0.32173 c 0,0 0.132291,0.529167 -0.992188,0.859896 -1.124479,0.330729 -1.124479,0.396875 -2.38125,0.595312 -1.256771,0.198438 -1.719791,0.132292 -2.711979,0.132292 -0.992187,0 -1.256771,-0.06615 -1.256771,-0.06615 m 30.427083,-6.449214 c 0,0 -0.09922,0.165364 -0.859896,0.23151 -0.760677,0.06615 -1.355989,0.03307 -1.355989,0.03307 m 2.182812,0.429951 c 0,0 -0.529166,0.264583 -1.124479,0.363802 -0.595312,0.09922 -1.256771,0.132291 -1.852083,0.09922 -0.595313,-0.03307 -1.785938,-0.264584 -1.918229,-0.297657 -0.132292,-0.03307 -1.918229,-0.694531 -2.14974,-0.826823 -0.23151,-0.132291 -0.496094,-0.23151 -0.496094,-0.23151 m 0.574046,21.87664 c 0,0 0.374176,-0.116932 0.841899,-0.140319 0.467719,-0.02339 0.491106,-0.04677 1.028985,0.04677 0.537882,0.09355 1.566868,0.30402 1.566868,0.30402 m -0.163703,1.122535 c 0,0 -0.748353,0.187089 -1.216075,0.187089 -0.467723,0 -1.403165,-0.09355 -2.057974,-0.327406 -0.654812,-0.23386 -2.198293,-0.841899 -2.759559,-0.841899 h -2.011204 m -7.062597,-2.19829 0.233863,0.420949 m -0.514496,0.608036 0.935445,0.18709 m 18.211273,6.370669 0.297656,0.429948 m -0.826822,0.363802 0.595312,0.165365 m 6.839233,2.164966 c 0,0 0.467723,-0.23386 1.122532,-0.04677 0.654812,0.187089 0.701582,0.187089 1.356394,0.420949 0.65481,0.233863 1.637025,0.280633 1.870885,0.467723 0.233862,0.187089 0.841899,0.514493 0.841899,0.514493 m -6.922281,-1.403168 c 0,0 0.280633,0.374179 1.496711,0.841899 1.216075,0.467722 1.870887,0.654812 2.525697,0.841899 0.654809,0.187089 2.338607,0.374179 2.338607,0.374179 M 93.170157,43.59166 c 0,0 0.420949,0.140317 0.935442,0.280633 0.514496,0.140317 1.262848,0.140317 1.262848,0.140317 m -3.975634,-0.514493 c 0,0 -0.09354,0.374176 1.496711,0.935442 1.590252,0.561266 2.15152,0.467723 2.806329,0.561266 0.65481,0.09354 1.028989,0.09354 1.028989,0.09354 m 13.937138,16.228823 1.52135,0.198437 m -3.9026,-0.727604 c 0,0 0,-0.06615 1.05833,0.661458 1.05833,0.727605 0.72761,0.79375 2.38125,0.926042 1.65365,0.132292 2.51354,0.264583 2.51354,0.264583 m -8.79739,13.758334 c 0,0 0.92604,-0.132292 1.98437,0.396875 1.05834,0.529166 1.85209,0.926041 1.85209,0.926041 m -6.21771,-1.918229 c 0,0 -0.0662,0.529167 1.5875,1.322917 1.65364,0.79375 1.5875,0.661458 2.97656,1.058333 1.38906,0.396875 2.3151,0.926042 2.3151,0.926042 M 96.350663,89.942879 c 0.608039,0.654809 0.280633,0.982215 1.216078,1.824114 0.935442,0.841899 1.075758,1.075759 1.683797,1.543481 0.608037,0.46772 1.730572,1.403165 1.730572,1.403165 l 0.8419,0.935442 M 73.80648,78.203062 c -0.935445,0.374179 -1.028988,0.374179 -1.824117,0.654812 -0.795125,0.280632 -2.759556,-0.09354 -2.759556,-0.09354 m 13.189752,2.619236 c 0.935442,0.42095 1.216075,0.514493 2.15152,1.216075 0.935442,0.701583 0.888669,0.935445 1.777341,1.730571 0.888672,0.795129 1.262848,1.122532 1.917658,1.309621 M 68.942174,83.160911 c 0.841899,1.028989 1.449938,1.169305 2.057974,2.759559 0.608039,1.590255 0.888672,1.449938 1.122532,2.759557 0.233863,1.309621 0.420949,3.741774 0.420949,3.741774 m 28.016531,23.292539 c 0,0 -3.648231,-3.3676 -6.548104,-4.58367 -2.899876,-1.21608 -6.735194,-2.33861 -8.044813,-3.18051 -1.309621,-0.8419 -4.30304,-2.5257 -4.30304,-2.5257 m -11.218891,15.887 c -0.708417,2.19468 0.647735,4.14069 1.922653,5.76162 2.231004,4.12558 3.306959,8.94651 2.509724,13.60938 -0.137023,2.67451 -0.896945,5.34682 -1.860918,7.81846 -0.751204,1.3264 -1.797433,2.45515 -2.571459,3.76679 m -16.65732,-10.92222 c 1.309621,-0.37418 2.525696,-0.46772 3.741774,-0.93545 1.216076,-0.46772 2.057974,-0.37417 3.180506,-1.4967 1.122532,-1.12254 2.057977,-1.40317 2.525697,-2.15152 0.467722,-0.74836 1.496711,-2.15152 1.870887,-3.08697 0.374176,-0.93544 0.561266,-1.77734 0.841899,-3.1805 0.280633,-1.40317 0.561266,-2.05798 1.028988,-3.3676 0.46772,-1.30962 1.152464,-3.46712 1.152464,-3.46712 M 56.874955,110.24199 c 0,0 0.795126,1.12254 1.403165,1.59026 0.608039,0.46773 0.935444,0.74836 1.590253,1.07576 0.65481,0.32741 0.795126,0.42095 1.403165,1.02899 0.608039,0.60804 1.216078,0.79512 1.777344,0.98221 0.561266,0.18709 1.169302,0.46773 1.169302,0.46773 l 0.42095,0.3274 h 0.187089 m -6.454558,-6.36102 c 0,0 0.608038,0.23387 0.982214,0.70159 0.374177,0.46772 0.467726,0.39757 0.982216,1.1927 0.514493,0.79512 1.216076,1.05236 1.496709,1.28622 0.280633,0.23386 0.935445,0.88868 0.935445,0.88868 m -3.882091,-5.94007 c 0,0 0.888672,0.51449 1.449938,0.88867 0.561266,0.37418 1.075759,0.56127 1.637025,1.21608 0.561265,0.65481 0.374179,0.70158 1.309621,1.77734 0.935442,1.07576 1.309621,1.21608 1.870887,1.87089 0.561266,0.65481 0.795126,0.93544 1.075759,1.59025 0.280633,0.65481 0.514493,1.44994 0.514493,1.44994 m 0.140316,-14.49937 c 0,0 0.140317,-2.057982 0.467723,-2.712791 0.327406,-0.654809 0.187089,-0.654809 0.982215,-1.637025 0.795129,-0.982215 1.075762,-1.262848 1.590254,-1.870887 0.514493,-0.608039 1.403165,-0.608039 2.80633,0 1.403165,0.608039 2.712786,2.011204 3.414368,2.759556 0.701583,0.748356 1.075759,1.075762 1.637025,2.104747 0.561269,1.02899 0.935445,1.49671 1.169305,2.43215 0.233863,0.93545 0.327406,1.96443 0.280633,2.38538 -0.04677,0.42096 0.233862,0.37418 -0.42095,1.12254 -0.654809,0.74835 -1.356391,1.40316 -2.011203,1.63702 -0.65481,0.23386 -1.403165,0.37418 -2.245064,0.28064 -0.841899,-0.0935 -1.730571,-0.65481 -2.291837,-0.98222 -0.561265,-0.32741 -1.870884,-1.49671 -2.525696,-2.19829 -0.654809,-0.70158 -1.917658,-1.96443 -2.198291,-2.24507 -0.280633,-0.28063 -0.654812,-1.07575 -0.654812,-1.07575 z M 54.305728,91.016666 c 0,0 -1.984374,1.785937 -2.579687,3.241145 -0.595312,1.455209 -0.06615,1.124479 -0.661458,2.711979 -0.595313,1.5875 -1.653646,3.37344 -1.653646,3.37344 m 9.458854,4.03489 c 0,0 -0.529167,0.26459 -0.79375,-0.92604 -0.264583,-1.19062 0.198437,-1.85208 0.198437,-2.57969 0,-0.7276 0.198438,-1.058329 0.198438,-1.058329 m -8.334375,-15.54427 c 0,0 3.704167,-0.463021 4.696354,-0.992188 0.992188,-0.529167 2.38125,-1.5875 3.439583,-2.116667"
       sodipodi:nodetypes="csscccccsssccccccccccsssccsccsssccsccssssccssccsssccccccccccsssccssccsccssccccssccsccssccsscccsccssccssccsscccccccssssssccssssccccsssccsssssccsssssssssscsssccssccssccsc" /></g><g
     inkscape:groupmode="layer"
     id="layer3"
     inkscape:label="Layer 3"
     style="display:inline"
     transform="matrix(1.0851409,0,0,1.0851409,-5.8261361,-7.7275633)"><path
       id="path2555"
       style="display:inline;fill:none;fill-opacity:1;stroke:#000000;stroke-width:0.921539;stroke-linecap:round;stroke-linejoin:round;stroke-miterlimit:5;stroke-dasharray:none;stroke-dashoffset:0.793701"
       d="m 84.976744,178.15814 c 0,0 1.538372,-3.58954 2.637208,-6.22675 1.098838,-2.63721 1.245349,-5.1279 3.369768,-9.08372 2.124419,-3.95581 4.468606,-6.15348 6.446512,-9.59651 1.977905,-3.44302 6.739538,-13.47907 8.570928,-16.26279 1.8314,-2.78372 3.77268,-5.56744 5.01802,-7.25232 1.24536,-1.68489 2.4907,-3.47966 3.11338,-5.67733 0.62267,-2.19767 1.58793,-5.43745 4.17791,-9.16703 2.58999,-3.72957 6.83756,-10.77433 7.76996,-11.91392 0.93239,-1.13959 2.58998,-3.625978 2.79718,-5.594367 0.2072,-1.968389 -0.259,-4.610171 -0.0518,-6.68216 0.2072,-2.071987 1.08779,-5.542566 1.86479,-7.096557 0.77699,-1.55399 1.50219,-3.159778 1.45039,-5.179967 -0.0518,-2.020186 -1.34679,-3.366979 -2.27919,-3.625977 -0.93239,-0.258998 -3.21158,-1.294993 -5.33536,0.517996 -2.12379,1.812988 -3.93678,2.227387 -7.40736,8.650547 0,0 -2.22738,4.402974 -3.05618,5.646167 -0.82879,1.243192 -1.24319,2.797182 -1.55399,3.677777 -0.3108,0.880595 -2.25891,5.60412 -6.28798,9.706441 -4.02907,4.10233 -6.739534,6.88605 -8.058139,7.39884 -1.318605,0.51279 -3.736046,1.68489 -7.105814,0.21977 -3.369767,-1.46512 -5.713953,-2.56395 -6.812791,-4.32209 -1.098837,-1.75814 -1.977907,-6.373259 -2.930232,-8.790701 -0.952326,-2.417442 -2.27093,-5.201163 -2.856977,-7.691861 -0.586046,-2.490697 -1.318605,-3.223256 -1.245349,-4.102325 0.07326,-0.87907 0.586047,-9.376745 0.366279,-14.211628 -0.219767,-4.834884 -0.805814,-8.644186 -0.805814,-9.669768 0,-1.025581 0.305835,-8.474234 0.150436,-12.152011 -0.155399,-3.677777 -0.569796,-8.546948 -0.673396,-9.220344 -0.103599,-0.673395 0.414398,-3.677777 -0.155399,-8.754146 -0.569796,-5.076369 -0.569796,-9.686541 -1.191392,-11.344131 -0.621597,-1.657589 -1.502191,-3.107981 -3.36698,-3.574178 -1.864788,-0.466197 -3.315179,-0.207198 -4.506572,0.466197 -1.191393,0.673396 -1.502191,1.294993 -1.60579,3.470579 -0.1036,2.175587 -0.880595,4.765571 -1.191393,6.889358 -0.310798,2.123787 -1.035994,4.92097 -1.191393,8.546948 -0.155399,3.625978 -0.776995,10.100938 -1.294992,12.483723 -0.517997,2.382786 -1.398591,4.92097 -1.398591,8.598748 0,3.677777 -0.517997,6.42316 -0.828795,9.272143 -0.310798,2.848983 -0.828795,7.200156 -0.673396,14.71111 0.155399,7.510954 -1.139593,12.846321 -2.020188,14.348512 -0.880594,1.502191 -0.984194,1.761189 -0.984194,1.761189 m 3.315179,-11.266433 c 0,0 -0.751094,-0.543896 -1.34679,-0.932394 -0.595699,-0.388496 -1.450393,-0.932395 -1.657591,-2.978481 -0.207198,-2.046086 0.80554,-5.089181 -0.513067,-10.400226 -1.318604,-5.311047 -2.563953,-8.131397 -2.527324,-9.523256 0.03663,-1.391862 0.07326,-5.384302 -0.732559,-12.197093 -0.805813,-6.812791 -1.758138,-9.266862 -1.794767,-9.852909 -0.03663,-0.586044 0.586047,-1.794766 -0.293023,-7.948255 -0.879071,-6.153488 -1.281978,-7.50872 -1.428489,-9.376743 -0.14651,-1.868023 -1.208719,-3.84593 -2.454068,-4.505233 -1.245349,-0.659302 -3.406397,-1.611628 -5.018024,-0.87907 -1.611627,0.732559 -2.637211,1.538373 -2.82035,2.966861 -0.183139,1.428488 0.512792,5.60407 0.366279,7.362208 -0.146511,1.75814 -1.428488,5.054653 -1.245349,8.094768 0.183139,3.040116 0.54942,7.215698 0.402907,10.255814 -0.14651,3.040118 -0.952325,6.959303 -0.69593,13.845349 0.256397,6.886046 1.281977,11.72093 1.684885,15.273837 0.402907,3.552907 1.172093,7.435464 1.868022,10.365698 0.69593,2.930231 1.355232,5.494187 1.208722,8.900581 -0.146513,3.406396 -0.659302,4.981395 -0.659302,4.981395 M 37.710168,57.678946 c 0,0 -0.725194,-4.765571 -1.39859,-8.184351 -0.673397,-3.418779 -1.838889,-7.251953 -2.071987,-8.935444 -0.2331,-1.683488 -0.595696,-4.480671 -1.52809,-6.008762 -0.932395,-1.52809 -2.564085,-2.900783 -4.584274,-2.823083 -2.020187,0.0777 -3.807276,1.061892 -4.428872,2.745383 -0.621596,1.683488 0.0259,2.745383 0.258998,4.791469 0.233099,2.046089 1.191393,2.848983 0.854695,5.620266 -0.336698,2.771283 -0.310798,5.05047 0.284898,8.702347 0.595696,3.651877 0.699296,5.620266 0.440297,7.277857 -0.258998,1.657588 1.605789,16.783097 1.916587,18.596085 0.310799,1.812989 3.315182,9.272143 4.299376,11.862126 0.984192,2.589985 3.107981,6.889358 4.247574,9.168541 1.139592,2.27919 1.761188,7.56276 1.761188,7.56276 M 28.423256,77.248254 c 0,0 -1.868025,-3.736046 -2.747094,-5.604068 -0.879069,-1.868024 -1.501744,-3.809304 -2.78372,-6.226743 C 21.610465,63 20.365116,61.791278 18.497093,61.644767 16.62907,61.498254 15.56686,62.12093 14.907558,63.256395 c -0.659302,1.135464 -0.622674,2.600581 -0.439535,3.516278 0.18314,0.915699 1.868023,3.69942 2.087791,4.871513 0.219767,1.172091 0.402907,5.274419 1.465116,7.545348 1.062209,2.270929 1.977907,4.798256 2.344186,6.66628 0.366279,1.868022 2.161046,4.468604 2.710465,6.702907 0.549419,2.234303 2.417442,6.446512 4.285465,9.376739 1.868025,2.93024 4.431977,7.43547 6.812791,9.99942 2.380813,2.56396 5.038524,11.34836 6.437114,15.75134 1.398593,4.40297 2.900783,8.80594 3.574179,14.29671 0.673394,5.49076 4.383474,8.70428 4.090451,17.64149 -0.293024,8.93721 -2.129996,14.7842 -2.129996,14.7842" /><path
       id="path3062"
       style="fill:none;fill-opacity:1;stroke:#000000;stroke-width:0.46077;stroke-linecap:round;stroke-linejoin:round;stroke-miterlimit:5;stroke-dasharray:none;stroke-dashoffset:0.793701"
       d="m 63.235969,123.8527 c 0.937452,4.70948 -3.244769,8.58611 -3.180506,13.37684 m -4.864306,-13.09621 c 0.612695,3.9921 -1.177996,7.88766 -0.56127,11.88013 m -4.957846,-10.28988 c 0.917176,3.54396 1.287203,7.21833 1.683798,10.85115 m 36.789182,20.5684 c -5.06896,-2.08693 -12.780092,-6.93928 -12.838525,-14.37459 0.02902,-2.15885 0.126917,-4.31609 0.236784,-6.4721 m 56.35381,-58.572023 c -5.51036,-5.167279 -10.04005,4.824711 -3.18663,6.153489 l 1.13547,0.132776 0.47616,0.05036 m -17.08798,38.963198 c -1.72913,-2.73644 -5.46993,-3.16419 -8.33975,-2.33098 m 16.8568,-25.350821 c 1.02055,1.919244 3.55037,3.479746 5.75058,3.296509 m -2.93023,-2.747092 c 0.7041,0.762515 1.74767,1.074836 2.74709,1.172094 m -4.28546,-2.490698 c 1.22085,0.0075 2.21376,0.532647 3.15,1.281976 m -4.35872,-2.747092 c 2.92529,-0.922135 5.73108,1.032857 6.88604,3.662791 M 87.748662,112.45711 c -0.189254,1.81036 1.150467,3.09211 0.414398,4.97277 m 1.605788,1.91659 c 0.965275,-2.0288 3.860513,-2.2329 3.781378,-4.97277 m -9.375741,-5.80157 c 1.153719,3.5799 1.904217,7.5395 2.330984,11.29233 m 4.299374,1.91659 c 2.389752,-3.19129 5.021713,-5.84731 6.889358,-9.37574 M 77.174999,86.222093 c -1.47351,2.110523 -1.50658,4.747742 -1.611627,7.215698 m 1.245349,-29.631978 c -0.271013,-0.315604 -0.60504,-0.512612 -0.988955,-0.659302 m 0.988955,-1.355233 -0.476163,0.402907 -1.318604,0.329653 m -13.55363,-2.073609 c 1.663601,-1.71265 3.141745,0.0082 4.791469,0.569796 m -4.402971,0.466199 c 1.034707,-1.009055 2.25206,0.874795 3.159778,0.440296 m -4.169873,0.621596 c 1.808213,0.796081 4.529996,1.181238 6.34546,0.0777 m 9.184997,-25.375235 c -0.268604,0.06105 -0.537208,0.122093 -0.805812,0.183139 m 0.732557,1.648257 -0.769186,-0.87907 -1.281975,-0.586047 m -10.45346,-2.936973 c 1.268686,-0.614835 2.820947,-0.279998 3.807277,0.699296 m -3.159781,0.0259 0.517999,0.336699 1.217292,0.284898 M 63.58411,35.871279 c 1.228485,1.256401 3.128707,1.300211 4.765572,1.243193 M 65.820347,18.826744 c 8.942964,-3.373609 9.37612,11.827392 -0.952325,6.190116 m -25.932558,3.040117 c 9.466098,2.49166 8.017355,-12.827329 -0.256395,-7.728494 M 50.45289,39.989355 C 49.207709,39.38722 49.746233,39.554158 48.298755,39.185408 M 37.969168,37.347572 c 1.029186,-0.06392 2.399716,-0.0015 3.056181,-0.984194 m -2.952583,0.310798 c 0.795134,-0.105114 1.492923,-0.570582 2.123787,-1.035995 m -2.330985,0.569796 c 0.676704,-1.369742 2.688162,-1.193866 3.884975,-0.828794 m 9.252212,28.858009 0.65905,-0.320765 m 1.122072,-1.238811 -0.621596,0.414398 -1.243193,0.466196 m 2.330985,-0.569796 c -0.402179,1.198303 -1.695422,1.911735 -2.900781,2.020186 m -11.447729,1.450393 c 1.213116,0.346043 2.504998,-0.110002 3.677777,-0.414398 m -3.418779,-0.517996 c 0.823304,0.0328 1.70048,-0.06221 2.434584,-0.466198 m -3.86625,0.02792 c 1.732594,-1.259919 4.606528,-1.24301 6.215962,0.259001 m -5.923891,1.681463 c 1.944366,1.197686 4.963746,0.568662 6.63036,-1.087794 M 60.36279,112.04477 c -1.301442,-1.98053 -1.657334,-4.38226 -0.842442,-6.62965 m 3.15,10.1093 c 3.000976,-1.70531 1.603415,-5.6757 0.402907,-8.09477 m -7.303584,-9.981959 c -1.368214,3.640109 -1.463755,7.767229 -0.207198,11.447729 m -9.704335,-1.20937 c -0.456838,-1.72761 0.04154,-3.47868 0.842444,-5.01803 m -5.207359,-2.973675 c -0.894975,2.788365 0.007,5.787645 1.098838,8.387795 m -4.830856,0.008 c 0.0061,1.98094 0.09308,4.12152 1.320892,5.77566 m -0.227786,-39.977111 -0.351948,0.09776 -0.307354,0.08538 m 0.87907,0.988955 c -0.670715,-0.379348 -1.596634,-0.571105 -2.380813,-0.476162 m -9.266862,2.087789 h 0.476163 l 1.135467,-0.32965 m -1.904653,-1.501746 0.769186,0.146513 h 0.73256 m -1.538373,0.659302 c 0.977335,0.30413 2.066763,0.05648 2.966861,-0.366279 M 36.811047,52.30465 35.895348,51.901743 34.65,51.828488 m -9.779651,0.146513 c 0.840737,-0.557215 1.759549,-0.06569 2.600581,0.14651 m -2.307558,0.842441 0.769186,0.109884 0.952326,-0.219768 M 25.2,53.659883 c 1.102006,0.343108 2.273355,-0.264227 3.296511,-0.622673 M 23.568855,35.456883 c 5.249691,-3.256637 10.245684,7.382563 3.574177,8.417449 l -1.37269,0.236336 -0.673396,0.02266 m 9.809448,68.204462 0.269263,-0.24683 0.170273,-0.15608 m -1.172093,-0.29302 0.769186,-0.0733 0.915696,-0.73256 m -5.127905,-22.269723 -0.87907,0.366282 m -7.344782,1.509686 c 0.344621,-0.436097 1.08568,-0.519897 1.502191,-0.0259 m -1.372692,0.569799 c 0.267632,-0.0086 0.535263,-0.01727 0.802895,-0.0259 m -0.647496,0.725194 0.932395,-0.0518 1.139592,-0.543896 m 1.812989,-17.378794 c -0.66308,-0.168139 -1.336012,0.07939 -1.968388,0.258998 m -7.510954,1.683491 0.35122,-0.100348 0.192677,-0.05505 m -0.258998,1.709389 c 0.324103,-0.727898 0.929172,-1.374004 1.683489,-1.657591 m -4.584271,-9.712439 c 4.233648,-5.366963 7.182748,4.440175 1.942488,5.931064"
       sodipodi:nodetypes="cccccccccccccccccccccccccccccccccccccccccccccccccccccccccccccccccccccccccccccccccccccccccccccccccccccccccccccccccccccccccccccccccccccccccccccccccc" /></g></svg>
