<?xml version="1.0" encoding="UTF-8" standalone="no"?>
<!-- Created with Inkscape (http://www.inkscape.org/) -->

<svg
   width="149mm"
   height="189mm"
   viewBox="0 0 149 189"
   version="1.1"
   id="svg5"
   xml:space="preserve"
   inkscape:version="1.2.2 (732a01da63, 2022-12-09)"
   sodipodi:docname="handPoses_back.svg"
   inkscape:export-filename="ThumbPinkyUp.png"
   inkscape:export-xdpi="96"
   inkscape:export-ydpi="96"
   xmlns:inkscape="http://www.inkscape.org/namespaces/inkscape"
   xmlns:sodipodi="http://sodipodi.sourceforge.net/DTD/sodipodi-0.dtd"
   xmlns="http://www.w3.org/2000/svg"
   xmlns:svg="http://www.w3.org/2000/svg"><sodipodi:namedview
     id="namedview7"
     pagecolor="#ffffff"
     bordercolor="#eeeeee"
     borderopacity="1"
     inkscape:showpageshadow="0"
     inkscape:pageopacity="1"
     inkscape:pagecheckerboard="false"
     inkscape:deskcolor="#505050"
     inkscape:document-units="mm"
     showgrid="false"
     inkscape:zoom="0.3092257"
     inkscape:cx="-210.20245"
     inkscape:cy="806.85403"
     inkscape:window-width="1440"
     inkscape:window-height="890"
     inkscape:window-x="214"
     inkscape:window-y="1073"
     inkscape:window-maximized="1"
     inkscape:current-layer="g1365"
     showguides="false"
     inkscape:pageshadow="2"><inkscape:grid
       type="xygrid"
       id="grid515"
       originx="0"
       originy="0" /><sodipodi:guide
       position="160.66239,27.168302"
       orientation="0,-1"
       id="guide1784"
       inkscape:locked="false" /></sodipodi:namedview><defs
     id="defs2" /><g
     inkscape:groupmode="layer"
     id="g1375"
     inkscape:label="Index"
     style="display:inline"><g
       inkscape:groupmode="layer"
       id="g1365"
       inkscape:label="IndexDown"
       style="display:inline"
       export-hand-poses="index,down"><path
         id="path1363"
         style="display:inline;fill:#ffffff;fill-opacity:1;stroke:#000000;stroke-width:1"
         d="m 295.3664,134.92833 c -3.7281,0.12683 -5.77393,-0.0485 -9.58608,-0.81739 -6.94836,-1.4014 -12.97694,-3.29052 -17.4749,-5.49536 -3.12512,-1.67867 -3.22854,-3.87867 -3.67113,-5.3894 -0.44259,-1.51072 -0.36773,-4.27494 0.38373,-5.94994 0.75145,-1.675 2.23633,-3.86062 5.38991,-5.01303 3.15359,-1.15241 5.25822,-1.52918 9.29739,-0.55621 3.04346,0.73312 15.41314,4.94755 16.70216,5.50941 3.75678,1.63753 15.79235,3.27959 16.45238,3.65485 1.20809,0.68687 6.36771,1.72521 10.04143,3.37538 3.67371,1.65018 7.84492,3.25201 10.6145,0.79675"
         inkscape:label="IndexDown"
         sodipodi:nodetypes="cscsssssssc"
         transform="matrix(0.25712596,0.96630437,-0.95960713,0.25892048,128.96899,-239.16317)" /><path
         d="m 83.860514,85.325251 0.01061,1.57634 m 1.573824,-2.6311 c 0.886698,0.866 0.726298,3.85455 -0.178784,3.95464 m -3.036394,-4.54313 c 0,0 -1.133805,1.69531 -0.459187,3.26117 l 0.684368,1.58849 M 81.791365,49.656137 c 0.776715,0.130567 1.329373,-0.122877 2.184119,-0.04958 0.769462,0.066 1.372188,0.418003 1.882179,0.319285 m -6.139016,0.880954 c 1.043916,-0.03836 2.05714,0.526474 4.131339,0.465942 2.03391,-0.05936 3.180482,0.412169 4.230837,0.405298"
         style="display:inline;fill:none;stroke:#000000;stroke-width:0.499999;stroke-linecap:round;stroke-linejoin:round;stroke-miterlimit:5;stroke-dasharray:none;stroke-dashoffset:0.793701;stroke-opacity:1;paint-order:markers stroke fill"
         id="path7622-7-6-7"
         sodipodi:nodetypes="cccccsccsccsc" /></g><g
       inkscape:groupmode="layer"
       id="g1369"
       inkscape:label="IndexUp"
       style="display:none"
       export-hand-poses="index,up"><path
         id="path1367"
         style="display:inline;fill:#ffffff;fill-opacity:1;stroke:#000000;stroke-width:1"
         d="m 291.12739,136.70851 c 0,0 2.06514,-2.40887 0.18452,-4.42598 -1.88062,-2.0171 -5.49012,-5.91945 -7.14015,-6.78957 -1.65003,-0.87012 -17.28595,-10.88049 -19.22257,-12.59779 -1.93663,-1.7173 -14.44941,-9.00765 -15.86558,-9.47271 -1.41617,-0.46506 -5.50342,-3.10102 -5.70861,-5.210372 -0.20519,-2.109357 1.12999,-5.175557 3.24508,-5.721607 2.11509,-0.54605 2.16936,-1.387499 7.01399,0.33861 4.84463,1.72611 9.1516,3.222556 15.06581,5.748852 5.9142,2.526297 14.01609,6.152377 18.62952,9.699707 4.61343,3.54734 10.97396,6.96362 14.80594,9.27438 3.83198,2.31076 10.39975,5.31894 12.47624,5.87533 2.07649,0.55639 5.25972,1.18794 8.36831,2.10673 2.78137,0.82208 9.29653,1.01421 10.5359,-0.4907"
         sodipodi:nodetypes="cssssssssssssc"
         inkscape:label="IndexUp"
         transform="matrix(0.25712596,0.96630437,-0.95960713,0.25892048,128.96899,-239.16317)" /><path
         id="path6028-6-2"
         style="display:inline;fill:none;stroke:#000000;stroke-width:0.499999;stroke-linecap:round;stroke-linejoin:round;stroke-miterlimit:5;stroke-dasharray:none;stroke-dashoffset:0.793701;stroke-opacity:1;paint-order:markers stroke fill"
         d="m 82.884797,84.923107 c 0.274803,0.26588 0.181391,-1.541264 0.627146,-1.98701 l 0.457667,-0.457664 m -3.004208,3.205071 c -0.107736,0.07744 -0.926696,-0.918367 0.415956,-2.911675 0.582085,-0.864166 1.986149,-2.324077 2.231018,-2.231023 m 0.151256,6.579624 c -0.547996,0.493004 1.677823,-0.03086 2.285971,-3.613002 l 0.285379,-1.680945 m 8.565622,-50.808481 c 0,0 0.06176,-1.763908 0.36992,-2.91397 0.308155,-1.15005 0.753273,-2.81125 1.469846,-3.440995 0.716573,-0.629745 1.094343,-1.460844 2.696224,-1.305533 1.601886,0.155295 2.223696,0.39037 3.168306,1.465256 0.94462,1.074858 0.96609,2.781014 0.81078,4.382902 -0.1553,1.601886 -0.73737,3.774214 -0.73737,3.774214 0,0 -2.04341,0.217321 -3.738841,-0.100012 -1.695435,-0.317318 -0.945849,-0.048 -1.806085,-0.415505 -0.860245,-0.367468 -2.232765,-1.446405 -2.232765,-1.446405 z m -0.80124,11.787427 c 1.717618,0.609676 3.122481,1.296173 4.457597,1.273914 M 93.81525,41.16607 c 1.96485,-0.254627 3.349098,0.87102 5.340142,1.555671 m -8.925968,17.659534 c 1.717618,0.609679 1.57211,0.615521 2.907226,0.593266 m -4.75211,-2.626592 c 3.818727,-0.419099 5.917243,1.157098 7.751857,2.231025 m -7.738188,0.458891 c 1.305658,1.4918 3.733682,1.604982 6.546755,2.023287" /></g><g
       inkscape:groupmode="layer"
       id="g1456"
       inkscape:label="IndexMiddleSimpleJoint"
       style="display:none"
       export-hand-poses="index,add-link"><path
         id="path1432"
         style="display:inline;fill:#ffffff;fill-opacity:1;stroke:#000000;stroke-width:1"
         d="m 233.6993,115.15813 c 0,0 -1.29268,-2.45006 0.0642,-4.79408 1.35684,-2.34401 3.33877,-3.28646 5.91574,-3.14074 2.57698,0.14568 11.25349,1.55665 13.90016,2.08831 2.64668,0.53168 11.45723,1.65065 15.52982,2.72189 4.07258,1.07125 13.20841,3.99134 18.28523,6.20969 4.44597,1.9427 11.67205,3.95892 17.9255,5.72099 0.59239,0.16692 10.16725,2.94982 18.08279,3.38945 3.94116,0.21889 4.68302,0.34021 7.52527,-2.32135"
         sodipodi:nodetypes="cscsssssc"
         inkscape:label="IndexMiddleSimpleJoint"
         transform="matrix(0.22701421,0.97392334,-0.96717329,0.22859857,141.35982,-234.84033)" /><path
         id="path6028-6-2-8"
         style="display:inline;fill:none;stroke:#000000;stroke-width:0.499999;stroke-linecap:round;stroke-linejoin:round;stroke-miterlimit:5;stroke-dasharray:none;stroke-dashoffset:0.793701;stroke-opacity:1;paint-order:markers stroke fill"
         d="m 82.137907,83.431565 c 0.324077,0.202934 -0.143016,-1.545304 0.200318,-2.073982 l 0.352514,-0.542823 m -2.27219,3.759641 c -0.08931,0.0981 -1.097385,-0.705619 -0.198484,-2.934526 0.389696,-0.966308 1.459546,-2.686236 1.718409,-2.646123 m 1.515929,6.404392 c -0.433519,0.596162 1.634737,-0.379067 1.484835,-4.009327 l -0.07034,-1.703551 M 82.683659,28.206182 c 0,0 -0.306317,-1.738203 -0.244013,-2.927203 0.06232,-1.188988 0.152327,-2.906434 0.722303,-3.671401 0.569983,-0.764967 0.766705,-1.656446 2.365872,-1.837579 1.599162,-0.181143 2.256258,-0.08049 3.403718,0.774507 1.147441,0.854974 1.523188,2.51938 1.704308,4.118558 0.181241,1.599154 0.06341,3.845045 0.06341,3.845045 0,0 -1.953575,0.637422 -3.677933,0.67952 -1.724319,0.04211 -0.93511,0.149738 -1.852961,-0.03094 -0.917849,-0.180583 -2.4847,-0.950579 -2.4847,-0.950579 z m 1.667012,11.696431 c 1.806843,0.239242 3.323737,0.618648 4.625047,0.319293 m -5.2438,-1.863754 c 1.868974,-0.657577 3.457009,0.155666 5.546891,0.411398 m -5.05929,19.129445 c 1.806844,0.239242 1.665727,0.275209 2.967043,-0.02415 m -5.194368,-1.581173 c 3.648147,-1.203901 6.028514,-0.09843 8.046318,0.57057 m -7.47368,2.057724 c 1.587287,1.18774 3.985789,0.793632 6.824356,0.617924" /></g><g
       inkscape:groupmode="layer"
       id="g1022"
       inkscape:label="IndexMiddleComplexJoint"
       style="display:none"
       export-hand-poses="index,multi-link"><path
         id="path1020"
         style="display:inline;fill:#ffffff;fill-opacity:1;stroke:#000000;stroke-width:0.996919"
         d="m 73.042261,78.768957 c 0.205964,-3.954426 -0.130528,-7.750448 -0.0037,-17.048846 0.08939,-6.554961 -0.184505,-12.349349 -0.472317,-20.153718 -0.151819,-4.116778 -1.102145,-9.595255 -1.642458,-14.13141 -0.36536,-3.067344 -0.674342,-7.22807 1.614235,-9.074037 3.387564,-2.73241 5.878,-1.796689 6.404622,-1.636018 2.575077,0.785648 3.936524,2.500426 4.380596,5.043509 0.444114,2.543083 1.049152,8.670051 1.135777,11.369242 0.08661,2.699204 1.004489,11.5358 0.89295,15.747074 -0.111551,4.211267 1.236683,13.70624 1.689981,20.875286 0.306223,4.843017 2.124063,11.020422 1.839458,17.51361 -0.02696,0.6151 -0.544877,10.576446 0.826865,18.386071 0.682995,3.88842 -0.02534,6.21284 5.392352,10.09442"
         sodipodi:nodetypes="cssssscsssssc"
         inkscape:label="IndexMiddleComplexJoint" /><path
         id="path6028-6-2-8-7"
         style="display:inline;fill:none;stroke:#000000;stroke-width:0.499999;stroke-linecap:round;stroke-linejoin:round;stroke-miterlimit:5;stroke-dasharray:none;stroke-dashoffset:0.793701;stroke-opacity:1;paint-order:markers stroke fill"
         d="m 81.321088,82.25582 c 0.17024,-1.157081 -0.35865,-1.654453 -0.803269,-2.762437 m -0.756536,4.022426 c -1.181087,-1.202294 -1.250414,-3.514855 -0.801579,-5.1815 m 3.433729,5.224257 C 83.78532,81.435241 83.136221,79.82136 82.271544,78.441584 M 74.345233,27.20252 c 0,0 -0.426823,-1.712598 -0.447612,-2.90305 -0.02077,-1.190439 -0.05079,-2.90998 0.464442,-3.712843 0.515233,-0.802862 0.649289,-1.705893 2.231925,-1.998138 1.582632,-0.292253 2.245147,-0.23768 3.449454,0.535189 1.204287,0.772852 1.69522,2.40699 1.987451,3.98964 0.292351,1.582615 0.331472,3.831257 0.331472,3.831257 0,0 -1.904351,0.772142 -3.621572,0.934422 -1.717182,0.162293 -0.922387,0.214605 -1.850603,0.09838 -0.928211,-0.116117 -2.544961,-0.774936 -2.544961,-0.774936 z m 2.478852,11.551656 c 1.819132,0.112635 3.358795,0.385288 4.636053,-0.0041 M 76.099101,37.25665 c 1.818553,-0.786347 3.45945,-0.08587 5.562078,0.02345 m -3.712564,19.435771 c 1.819133,0.112626 1.68087,0.158339 2.958131,-0.231064 m -5.292011,-1.214981 c 3.555279,-1.45545 6.006966,-0.518718 8.066518,0.0079 m -7.311934,2.574049 c 1.666274,1.074124 4.031441,0.513666 6.850837,0.140375"
         sodipodi:nodetypes="ccccccccsssccsccccccccccccc" /></g></g><g
     inkscape:groupmode="layer"
     id="g1343"
     inkscape:label="Pinky"
     style="display:inline"><g
       inkscape:groupmode="layer"
       id="g1341"
       inkscape:label="PinkyDown"
       style="display:inline"
       export-hand-poses="pinky,down"><path
         id="path1339"
         style="display:inline;fill:#ffffff;fill-opacity:1;stroke:#000000;stroke-width:1"
         d="m 353.74771,204.05423 c -3.71475,-0.58294 -7.49193,-1.07671 -12.8961,-2.0729 -4.5935,-0.84676 -8.75261,-0.79696 -14.89248,-1.9006 -7.20324,-1.29478 -20.26909,-5.85299 -24.3464,-7.88709 -4.07731,-2.0341 -7.28757,-3.15108 -9.53946,-4.01127 -2.25188,-0.86019 -7.20086,-2.22549 -12.08362,-3.71289 -7.29157,-2.22117 -10.11355,-2.08231 -14.25525,-3.55292 -3.9348,-1.39715 -7.13188,-1.58524 -7.03199,-7.73876 0.0759,-4.67436 1.08963,-6.37214 2.55766,-7.53965 2.17848,-1.73253 6.40989,-0.97513 8.71234,-0.52825 3.51063,0.68138 5.55133,2.57638 11.70689,4.61122 3.07497,1.01649 5.95557,1.79917 7.95671,3.45218"
         sodipodi:nodetypes="cssssssssssc"
         inkscape:label="PinkyDown"
         transform="matrix(0.25712596,0.96630437,-0.95960713,0.25892048,128.96899,-239.16317)" /><path
         d="m 30.695178,88.059939 -0.0033,1.418157 m 1.338518,-2.455745 c -0.08794,0.555755 0.363263,1.190036 0.310757,1.919602 -0.04283,0.595153 -0.597969,1.354914 -0.597969,1.354914 m -2.437641,-3.580542 c 0,0 -0.567314,1.507976 -0.211015,3.175332 l 0.139558,0.653083 m 0.136548,-32.006448 c 1.491934,0.118526 2.004679,-0.189327 3.058922,-0.490729 m -4.442112,2.00549 c 2.298171,0.283438 4.700129,0.114427 6.323255,-1.160558"
         style="fill:none;stroke:#000000;stroke-width:0.499999;stroke-linecap:round;stroke-linejoin:round;stroke-miterlimit:5;stroke-dasharray:none;stroke-dashoffset:0.793701;stroke-opacity:1;paint-order:markers stroke fill"
         id="path7622"
         sodipodi:nodetypes="cccsccsccccc" /></g><g
       inkscape:groupmode="layer"
       id="g1333"
       inkscape:label="PinkyUp"
       style="display:none"
       export-hand-poses="pinky,up"><path
         style="display:inline;fill:#ffffff;fill-opacity:1;stroke:#000000;stroke-width:1.00008;stroke-linecap:square;stroke-dasharray:none"
         d="m 352.78914,203.88383 c -2.36756,-0.50382 -4.94438,-1.53877 -8.42709,-2.0536 -3.48271,-0.51482 -8.11033,-2.19762 -15.98954,-3.08753 -7.87921,-0.88993 -16.03934,-3.4469 -20.74042,-5.50695 -5.18927,-2.27398 -13.05522,-3.9645 -16.6979,-4.79153 -7.55042,-1.35165 -6.19595,-0.43701 -13.3675,-0.75915 -6.99559,0.3616 -7.90156,0.38315 -14.71682,0.66516 -10.75507,0.44504 -12.54378,1.44196 -20.38024,1.66615 -3.45249,0.0988 -7.55157,0.51883 -9.6943,-1.9964 -2.14272,-2.51523 -1.38923,-5.66038 -0.0162,-6.95513 1.37308,-1.29475 7.89057,-4.2442 12.14991,-4.52144 4.25935,-0.27726 14.03968,-2.51965 19.49808,-3.36733 8.19827,-1.5321 15.24502,-0.96204 18.61447,-1.96999 0.47621,-0.14246 1.66338,-0.76823 -0.31341,-1.18216"
         id="path1331"
         sodipodi:nodetypes="csssccsscsscsc"
         inkscape:label="PinkyUp"
         transform="matrix(0.25712596,0.96630437,-0.95960713,0.25892048,128.96899,-239.16317)" /><path
         id="path6028"
         style="fill:none;stroke:#000000;stroke-width:0.499999;stroke-linecap:round;stroke-linejoin:round;stroke-miterlimit:5;stroke-dasharray:none;stroke-dashoffset:0.793701;stroke-opacity:1;paint-order:markers stroke fill"
         d="m 30.197112,84.249457 c 0,0 0.961573,1.201256 0.961573,1.848488 v 0.647232 m -0.142034,-4.39062 c 0,0 1.657787,1.336926 1.764742,2.352989 0.106953,1.016061 0,3.155141 0,3.155141 m -4.759452,-4.545545 c 0,0 -0.04846,2.780806 0.938358,4.171207 l 0.986814,1.390401 M 10.689801,42.140587 c 0,0 -0.680294,-1.279736 -0.9333372,-2.224106 -0.2530409,-0.944362 -0.6185483,-2.308453 -0.3675245,-3.050495 0.2510229,-0.74204 0.5507455,-1.722052 1.7536707,-2.269299 1.202921,-0.547253 1.741628,-0.635366 2.854689,-0.258828 1.11306,0.376535 2.184957,1.438879 2.732207,2.641804 0.547249,1.202924 1.025218,2.986728 1.025218,2.986728 0,0 -1.720038,1.135661 -3.056008,1.606094 -1.335966,0.470442 -0.692332,0.354208 -1.454966,0.44605 -0.762625,0.09187 -2.553959,0.122013 -2.553959,0.122013 z m 6.368821,9.369284 C 18.5304,51.238225 19.46254,50.669738 20.40285,50.105747 m -4.095145,0.570093 c 1.292731,-0.98779 2.624206,-1.513867 4.321213,-1.844448 m 2.908044,17.531547 c 1.471775,-0.271647 2.403916,-0.840132 3.344227,-1.404124 m -5.319127,1.261751 c 2.54356,-1.865907 3.066055,-2.41713 6.226492,-2.877775 m -5.285073,4.920627 c 3.064338,-0.749099 3.822451,-0.795039 6.206818,-2.919973"
         sodipodi:nodetypes="csccsccsccsssssccccccccccccccc" /></g><g
       inkscape:groupmode="layer"
       id="g1337"
       inkscape:label="PinkyRingSimpleJoint"
       style="display:none"
       export-hand-poses="pinky,abd-link"><path
         id="path1335"
         style="display:inline;fill:#ffffff;fill-opacity:1;stroke:#000000;stroke-width:1"
         d="m 352.78914,203.88383 c -3.71863,-0.50356 -7.26735,-1.59815 -12.42303,-2.04195 -5.15569,-0.44382 -14.06382,-2.18259 -26.00147,-6.11279 -11.93767,-3.93019 -14.39361,-6.2844 -17.90458,-6.98045 -3.51096,-0.69604 -6.72324,-2.85944 -16.39959,-3.02145 -9.67636,-0.162 -14.17975,-0.74326 -19.67559,-1.20972 -5.49584,-0.46646 -11.4639,-1.08496 -14.2719,-2.07585 -2.80801,-0.99091 -8.1211,-1.48539 -9.76467,-3.66491 -1.64356,-2.17953 -1.54473,-5.83254 0.94521,-7.25267"
         sodipodi:nodetypes="csssssssc"
         inkscape:label="PinkyRingSimpleJoint"
         transform="matrix(0.25712596,0.96630437,-0.95960713,0.25892048,128.96899,-239.16317)" /><path
         id="path6028-2"
         style="display:inline;fill:none;stroke:#000000;stroke-width:0.499999;stroke-linecap:round;stroke-linejoin:round;stroke-miterlimit:5;stroke-dasharray:none;stroke-dashoffset:0.793701;stroke-opacity:1;paint-order:markers stroke fill"
         d="m 30.791027,83.966098 c 0,0 -0.205548,1.524931 0.127805,2.079709 l 0.333355,0.554782 m -2.139581,-3.836651 c 0,0 -0.732436,1.999794 -0.300803,2.925814 0.43166,0.92601 1.625014,2.704488 1.625014,2.704488 m 1.738527,-6.347594 c 0,0 1.473757,2.358659 1.343999,4.058713 L 33.389585,87.80541 M 26.278151,41.530507 c 0,0 -0.07599,-1.447324 -0.345486,-2.38713 -0.269495,-0.939801 -0.658745,-2.297307 -1.256109,-2.804067 -0.597348,-0.506768 -1.359007,-1.192431 -2.671964,-1.041959 -1.312962,0.150442 -1.820109,0.352368 -2.580237,1.248447 -0.760147,0.896019 -1.131793,2.358697 -0.981327,3.67166 0.150462,1.31296 0.659475,3.088158 0.659475,3.088158 0,0 2.05927,0.08756 3.446709,-0.19727 1.38745,-0.284787 0.775873,-0.05295 1.476889,-0.366997 0.701038,-0.313982 2.252005,-1.21081 2.252005,-1.21081 z m -1.31426,11.538115 c -1.40146,0.525184 -2.493262,0.517969 -3.58974,0.518835 m 3.803839,-1.6205 c -1.616833,-0.180896 -3.02908,0.05397 -4.653961,0.644579 m 7.671149,14.86141 c -1.401461,0.525185 -2.115118,1.349876 -3.211596,1.350742 m 4.831092,-2.716806 c -3.141268,-0.289369 -3.494898,0.717292 -6.441167,1.950182 m 6.383848,0.512624 c -3.012465,0.936142 -3.005309,2.346018 -6.143529,1.752627"
         sodipodi:nodetypes="csccsccsccsssssccccccccccccccc" /></g><g
       inkscape:groupmode="layer"
       id="g1026"
       inkscape:label="PinkyRingComplexJoint"
       style="display:none"
       export-hand-poses="pinky,multi-link"><path
         id="path1024"
         style="display:inline;fill:#ffffff;fill-opacity:1;stroke:#000000;stroke-width:1"
         transform="matrix(0.25712596,0.96630437,-0.95960713,0.25892048,128.96899,-239.16317)"
         d="m 352.78914,203.88383 c -3.71863,-0.50356 -7.26735,-1.59815 -12.42303,-2.04195 -5.15569,-0.44382 -14.06382,-2.18259 -26.00147,-6.11279 -11.93767,-3.93019 -14.39361,-6.2844 -17.90458,-6.98045 -3.51096,-0.69604 -15.05976,-5.16553 -18.99133,-8.28794 -2.49476,-1.9813 -15.17736,-5.23999 -19.71858,-7.01301 -4.95557,-1.93478 -11.43189,-4.23255 -14.04236,-5.66727 -2.61047,-1.43475 -7.77143,-2.78636 -9.04258,-5.20556 -0.78036,-1.48517 -0.65679,-3.50924 0.17592,-5.08163 0.12235,-0.23101 1.02464,-3.9689 4.95908,-3.3599 4.13,0.63928 5.81992,1.56684 11.78227,3.14008 4.36871,1.1527 9.43788,2.11901 14.09592,3.27293 9.20407,2.28009 16.95028,4.47821 18.33298,4.86673"
         sodipodi:nodetypes="cssssccccscsc"
         inkscape:label="PinkyRingComplexJoint" /><path
         id="path6028-5"
         style="display:inline;fill:none;stroke:#000000;stroke-width:0.5;stroke-linecap:round;stroke-linejoin:round;stroke-miterlimit:5;stroke-dasharray:none;stroke-dashoffset:0.793701;stroke-opacity:1;paint-order:markers stroke fill"
         d="m 34.196565,80.148854 c 0,0 -0.549997,1.627081 -0.3029,2.305953 l 0.247096,0.678871 M 32.613558,78.47418 c 0,0 -1.228446,2.035173 -0.95273,3.14174 0.275744,1.106561 1.204515,3.3094 1.204515,3.3094 m 3.256814,-6.584767 c 0,0 1.112437,2.898259 0.608184,4.733368 l -0.504254,1.83511 M 41.1488,37.625198 c 0,0 0.224995,-1.602013 0.12988,-2.689155 -0.09513,-1.087135 -0.2325,-2.657451 -0.779099,-3.339936 -0.546581,-0.682483 -1.235095,-1.595984 -2.705747,-1.710752 -1.470651,-0.114776 -2.069336,-0.0016 -3.093054,0.81838 -1.023727,0.819867 -1.742463,2.343364 -1.857232,3.814019 -0.114769,1.470655 0.06487,3.524139 0.06487,3.524139 0,0 2.237686,0.534532 3.818565,0.517941 1.58088,-0.01654 0.861402,0.107212 1.696387,-0.08756 0.834996,-0.194722 2.725395,-0.847045 2.725395,-0.847045 z m -2.996374,9.584884 c -1.647437,0.276937 -2.842177,0.03651 -4.043771,-0.196064 m 4.51299,-0.965429 c -1.733036,-0.542563 -3.330447,-0.586051 -5.236621,-0.284934 m 3.749659,15.755451 c -1.647431,0.276959 -2.842174,0.03652 -4.043768,-0.196066 m 6.060868,-0.707215 C 35.771534,59.629737 35.013055,59.251034 31.52225,59.974411 m 7.421977,3.143544 c -3.50013,0.384136 -4.312843,0.625386 -7.625006,-0.693175"
         sodipodi:nodetypes="csccsccsccsssssccccccccccccccc" /></g></g><g
     inkscape:groupmode="layer"
     id="g1329"
     inkscape:label="Ring"
     style="display:inline"><g
       inkscape:groupmode="layer"
       id="g1319"
       inkscape:label="RingDown"
       style="display:inline"
       export-hand-poses="ring,down"><path
         id="path1317"
         style="display:inline;fill:#ffffff;fill-opacity:1;stroke:#000000;stroke-width:1"
         d="m 285.74134,152.37453 c 0.2263,-2.06728 -20.46752,-9.01194 -24.17814,-7.20378 -1.5289,0.27513 -1.90219,1.36821 -3.54762,4.53341 -1.54577,3.7319 -2.01982,5.87851 -1.34054,7.87527 0.8585,2.52355 2.87534,4.49971 6.85357,5.82707 10.29318,3.60476 18.63692,6.54151 20.0806,6.92305"
         sodipodi:nodetypes="cccscc"
         inkscape:label="RingDown"
         transform="matrix(0.25712596,0.96630437,-0.95960713,0.25892048,128.96899,-239.16317)" /><path
         d="m 46.013214,84.366675 -0.147967,1.569412 m -1.338519,-2.758256 c -0.958802,0.785423 -1.059472,3.776584 -0.166555,3.955167 m 3.420803,-4.261193 c 0,0 0.981723,1.787669 0.173201,3.288774 l -0.820209,1.522803 m 4.18073,-36.023248 c -1.491934,0.118526 -3.06347,-0.03807 -4.117713,-0.339474 m 5.198391,1.702979 c -2.298171,0.283438 -4.927013,0.795078 -6.550139,-0.479907"
         style="display:inline;fill:none;stroke:#000000;stroke-width:0.499999;stroke-linecap:round;stroke-linejoin:round;stroke-miterlimit:5;stroke-dasharray:none;stroke-dashoffset:0.793701;stroke-opacity:1;paint-order:markers stroke fill"
         id="path7622-7"
         sodipodi:nodetypes="cccccsccccc" /></g><g
       inkscape:groupmode="layer"
       id="g1315"
       inkscape:label="RingUp"
       style="display:none"
       export-hand-poses="ring,up"><path
         id="path1313"
         style="display:inline;fill:#ffffff;fill-opacity:1;stroke:#000000;stroke-width:1;stroke-linecap:round"
         d="m 283.78507,170.40125 c -1.77529,-0.78612 -4.65045,-0.96423 -6.28475,-1.36824 -2.29846,-0.5682 -15.99934,-1.4387 -20.37918,-2.3993 -4.37983,-0.9606 -13.43664,-3.58382 -18.77992,-4.24375 -5.34328,-0.65995 -11.94006,-1.19836 -13.64826,-1.82899 -1.7082,-0.63063 -5.4899,-1.83466 -5.58601,-5.07582 -0.0961,-3.24115 0.8532,-4.58757 1.78449,-5.33232 0.93129,-0.74476 2.50502,-1.59293 6.57205,-1.29169 6.16164,0.45641 9.94887,0.91149 12.67068,1.08389 2.7218,0.17242 6.30672,0.35933 8.48057,0.61754 2.17383,0.25824 8.26575,0.20205 10.48976,0.30274 2.22403,0.10034 5.12958,0.4658 7.38464,0.78924 2.58699,0.5297 5.37543,1.10404 7.18397,1.41953 1.15308,0.20115 5.87446,0.70623 9.01206,1.01515 3.18061,0.31316 3.21849,-1.39679 3.21849,-1.39679"
         sodipodi:nodetypes="csssssccccccssc"
         inkscape:label="RingUp"
         transform="matrix(0.25712596,0.96630437,-0.95960713,0.25892048,128.96899,-239.16317)" /><path
         id="path6028-6-9"
         style="display:inline;fill:none;stroke:#000000;stroke-width:0.499999;stroke-linecap:round;stroke-linejoin:round;stroke-miterlimit:5;stroke-dasharray:none;stroke-dashoffset:0.793701;stroke-opacity:1;paint-order:markers stroke fill"
         d="m 46.699265,83.498871 c 0,0 -0.617907,-1.409192 -0.450379,-2.034375 0.167519,-0.625181 0.167519,-0.625181 0.167519,-0.625181 m -0.999185,4.277777 c 0,0 -1.255277,-1.720439 -1.095609,-2.729564 0.159668,-1.009117 0.816608,-3.04763 0.816608,-3.04763 m 3.420804,5.622492 c 0,0 0.766534,-2.673508 0.173207,-4.271938 -0.593327,-1.598429 -0.593327,-1.598429 -0.593327,-1.598429 M 34.77859,23.337433 c 0,0 -0.396875,-1.71979 -0.396875,-2.91042 0,-1.19062 0,-2.910421 0.529167,-3.704171 0.529166,-0.79375 0.774672,-1.776452 2.362172,-2.041032 1.5875,-0.26459 2.248958,-0.19844 3.439583,0.59531 1.190625,0.79375 2.116667,2.38125 2.38125,3.968751 0.264584,1.5875 0.264584,3.83646 0.264584,3.83646 0,0 -2.38125,0.79375 -4.101042,0.92604 -1.719792,0.1323 -0.926042,0.19844 -1.852084,0.0661 -0.926041,-0.1323 -2.626755,-0.737088 -2.626755,-0.737088 z m 4.122642,13.104217 c 1.816888,0.14435 3.092556,-0.230562 4.376419,-0.597614 m -4.996853,-0.620148 c 1.831997,-0.75449 3.564042,-0.953651 5.664445,-0.807635 m -2.105032,21.53914 c 1.816888,0.14435 3.092556,-0.230562 4.376419,-0.597614 m -6.65464,-0.192332 c 3.580136,-1.393177 4.368493,-1.876902 8.231341,-1.42262 m -7.767829,4.122376 c 3.840723,0.08468 4.74698,0.269592 8.221498,-1.478459" /></g><g
       inkscape:groupmode="layer"
       id="g1323"
       inkscape:label="RingMiddleSimpleJoint"
       style="display:none"
       export-hand-poses="ring,abd-link"><path
         id="path1321"
         style="display:inline;fill:#ffffff;fill-opacity:1;stroke:#000000;stroke-width:1"
         d="m 280.86785,174.48701 c 3.64411,-0.95652 1.26487,-3.07347 0.0995,-3.27624 -16.81051,-2.92499 -41.8768,-2.02544 -57.37573,-7.17854 -1.7082,-0.63063 -5.4899,-1.83466 -5.58601,-5.07582 -0.0961,-3.24115 0.8532,-4.58757 1.78449,-5.33232 0.93129,-0.74476 0.39781,-1.52201 6.57205,-1.29169 6.17423,0.23035 9.94887,0.91149 12.67068,1.08389 2.7218,0.17242 6.30672,0.35933 8.48057,0.61754 2.17383,0.25824 8.31349,0.56872 10.5375,0.66941 6.08439,0.86366 9.60967,0.97611 14.52087,1.8421 1.80853,0.31549 9.25263,0.57226 9.25263,0.57226"
         sodipodi:nodetypes="cscsccccccc"
         inkscape:label="RingMiddleSimpleJoint"
         transform="matrix(0.18985855,0.98195355,-0.97514786,0.1911836,154.08128,-230.84422)" /><path
         id="path6028-6-9-9"
         style="display:inline;fill:none;stroke:#000000;stroke-width:0.499999;stroke-linecap:round;stroke-linejoin:round;stroke-miterlimit:5;stroke-dasharray:none;stroke-dashoffset:0.793701;stroke-opacity:1;paint-order:markers stroke fill"
         d="m 47.271469,84.364568 c 0,0 -0.543309,-1.439599 -0.343291,-2.055158 l 0.200009,-0.615556 m -1.221697,4.219621 c 0,0 -1.163516,-1.783778 -0.951253,-2.783164 0.212261,-0.999377 0.974989,-3.000715 0.974989,-3.000715 m 3.121857,5.793818 c 0,0 0.905404,-2.629726 0.396546,-4.257019 L 48.93977,80.039104 M 38.515736,23.6617 c 0,0 -0.306324,-1.738205 -0.244011,-2.927203 0.06231,-1.188988 0.152315,-2.906432 0.722304,-3.671399 0.569982,-0.764968 0.866582,-1.733476 2.465754,-1.91461 1.599172,-0.181144 2.256261,-0.08047 3.403712,0.774509 1.147452,0.854974 1.989141,2.488765 2.170278,4.087937 0.181138,1.599171 0.06344,3.845049 0.06344,3.845049 0,0 -2.419529,0.668038 -4.143887,0.71014 -1.724359,0.04211 -0.935159,0.149702 -1.853005,-0.03094 -0.917849,-0.180583 -2.58458,-0.87355 -2.58458,-0.87355 z m 2.575539,12.446388 c 1.806843,0.239241 3.100384,-0.0684 4.401698,-0.36775 m -4.957549,-0.880815 c 1.868973,-0.657576 3.609067,-0.765816 5.69895,-0.510074 m -2.373785,22.255085 c 1.806842,0.239241 3.100383,-0.06839 4.401697,-0.367751 m -5.99373,-0.647299 c 2.204263,-0.98999 4.19335,-1.48527 6.743682,-0.882921 m -6.315146,3.656712 c 2.601057,0.392526 4.726365,0.196798 6.897206,-0.832245"
         sodipodi:nodetypes="csccsccsccsscsscsccccccccccccc" /></g><g
       inkscape:groupmode="layer"
       id="g1184"
       inkscape:label="RingMiddlePinkyComplexJoint"
       transform="rotate(4.8700461,57.169911,108.92835)"
       style="display:none"
       export-hand-poses="ring,multi-link"><path
         id="path1182"
         style="display:inline;fill:#ffffff;fill-opacity:1;stroke:#000000;stroke-width:1"
         d="m 283.27493,172.91846 c -5.64796,-0.98273 -14.68312,-1.87768 -21.51896,-2.37157 -13.51029,-0.97612 -25.66805,-3.02415 -35.95968,-6.44592 -1.7082,-0.63063 -5.4899,-1.83466 -5.58601,-5.07582 -0.0961,-3.24115 0.8532,-4.58757 1.78449,-5.33232 0.93129,-0.74476 0.39781,-1.52201 6.57205,-1.29169 6.17423,0.23035 7.7442,0.84275 10.46601,1.01515 2.7218,0.17242 6.30672,0.35933 8.48057,0.61754 2.17383,0.25824 8.31349,0.56872 10.5375,0.66941 6.08439,0.86366 9.60967,0.97611 14.52087,1.8421 1.80853,0.31549 11.36602,1.68802 11.36602,1.68802"
         sodipodi:nodetypes="cscsccccccc"
         inkscape:label="RingMiddlePinkyComplexJoint"
         transform="matrix(0.18985855,0.98195355,-0.97514786,0.1911836,154.08128,-230.84422)" /><path
         id="path6028-6-9-5"
         style="display:inline;fill:none;stroke:#000000;stroke-width:0.499999;stroke-linecap:round;stroke-linejoin:round;stroke-miterlimit:5;stroke-dasharray:none;stroke-dashoffset:0.793701;stroke-opacity:1;paint-order:markers stroke fill"
         d="m 45.612135,83.609164 c 0,0 -0.48942,-1.458793 -0.26667,-2.066497 l 0.222747,-0.607697 m -1.37768,4.171299 c 0,0 -1.096415,-1.825789 -0.847155,-2.816594 0.249253,-0.990799 1.08584,-2.962406 1.08584,-2.962406 m 2.904365,5.905842 c 0,0 1.002518,-2.594258 0.55449,-4.23934 L 47.440045,79.348693 M 38.715218,25.448064 c 0,0 -0.241513,-1.748388 -0.135051,-2.93425 0.106462,-1.185851 0.260231,-2.898765 0.858255,-3.642018 0.598021,-0.743256 0.930411,-1.700068 2.53521,-1.821645 1.604801,-0.121582 2.257693,0.0034 3.372575,0.900478 1.114881,0.897029 1.895268,2.560972 2.016845,4.165775 0.12158,1.604797 -0.07951,3.844749 -0.07951,3.844749 0,0 -2.442685,0.577651 -4.167417,0.555635 -1.724732,-0.022 -0.940076,0.114844 -1.850574,-0.09978 -0.910501,-0.214578 -2.550326,-0.969009 -2.550326,-0.969009 z m 1.911743,12.756097 c 1.796703,0.306225 3.100783,0.04692 4.412326,-0.203902 M 40.1179,36.935802 c 1.89212,-0.587661 3.635035,-0.631153 5.71397,-0.297915 m -3.120285,19.255621 c 1.796706,0.306226 3.100785,0.04692 4.412326,-0.203902 m -6.610788,-0.786584 c 3.690366,-1.067479 4.518819,-1.478776 8.325573,-0.680918 m -8.105317,3.411303 c 3.817769,0.427759 4.703859,0.692965 8.320763,-0.737411"
         sodipodi:nodetypes="csccsccsccssscsccccccccccccccc" /></g><g
       inkscape:groupmode="layer"
       id="g1327"
       inkscape:label="RingPinkySimpleJoint"
       style="display:none"
       export-hand-poses="ring,add-link"><path
         id="path1325"
         style="display:inline;fill:#ffffff;fill-opacity:1;stroke:#000000;stroke-width:1"
         d="m 285.74742,152.70736 c -0.88792,2.11129 -3.22163,3.08799 -6.51583,3.45469 -3.33251,0.37097 -6.4559,0.53752 -12.13181,0.36053 -5.67589,-0.17698 -13.52324,2.07395 -20.7425,1.83439 -7.21926,-0.23956 -10.55132,1.20669 -14.44774,1.16829 -3.89642,-0.0384 -6.89907,0.38469 -8.44896,2.23097 -1.54988,1.84628 -1.80711,4.80363 -0.84923,6.41495 0.95789,1.61131 3.11362,2.73966 6.75127,3.04219 3.63766,0.30253 9.45813,0.29371 9.45813,0.29371 5.91018,-0.0448 16.19474,-0.11291 22.70298,-0.36284 6.50824,-0.24994 10.26184,-1.38674 15.83638,-0.89494 5.57454,0.4918 6.55873,0.78454 6.55873,0.78454"
         sodipodi:nodetypes="csssscsscssc"
         inkscape:label="RingPinkySimpleJoint"
         transform="matrix(0.25712596,0.96630437,-0.95960713,0.25892048,128.96899,-239.16317)" /><path
         id="path6028-6-9-0"
         style="display:inline;fill:none;stroke:#000000;stroke-width:0.499999;stroke-linecap:round;stroke-linejoin:round;stroke-miterlimit:5;stroke-dasharray:none;stroke-dashoffset:0.793701;stroke-opacity:1;paint-order:markers stroke fill"
         d="m 46.708999,82.904335 c 0,0 -0.830741,-1.295179 -0.76308,-1.938873 l 0.06766,-0.643689 m -0.317692,4.381415 c 0,0 -1.508958,-1.502887 -1.509118,-2.524566 -1.61e-4,-1.021673 0.3298,-3.137855 0.3298,-3.137855 m 4.258238,5.018139 c 0,0 0.33888,-2.760511 -0.497195,-4.246439 L 47.441534,78.326533 M 25.737673,28.770917 c 0,0 -0.661023,-1.636533 -0.847277,-2.812506 -0.186252,-1.17596 -0.455289,-2.874587 -0.0568,-3.741344 0.39848,-0.866757 0.487234,-1.875766 2.013801,-2.385431 1.526563,-0.509671 2.190226,-0.547809 3.490364,0.04991 1.300135,0.597722 2.463116,2.020813 2.972781,3.54738 0.509665,1.526565 0.86148,3.747837 0.86148,3.747837 0,0 -2.227762,1.156486 -3.905686,1.556182 -1.677924,0.399707 -0.883597,0.340863 -1.818941,0.355014 -0.935337,0.01423 -2.709723,-0.317098 -2.709723,-0.317098 z m 6.121837,12.297958 c 1.817099,-0.141662 3.018412,-0.711507 4.229051,-1.27488 m -5.032348,0.169132 c 1.691413,-1.031789 3.370978,-1.499449 5.468364,-1.683805 M 37.38711,57.7435 c 1.8171,-0.141662 3.018415,-0.711505 4.22905,-1.274879 m -6.602798,0.851052 c 3.318119,-1.936082 4.021099,-2.537178 7.907453,-2.69277 m -7.027312,5.286777 c 3.806685,-0.517183 4.730711,-0.476311 7.888997,-2.746382"
         sodipodi:nodetypes="csccsccsccsccssccccccccccccccc" /></g></g><g
     inkscape:groupmode="layer"
     id="g1361"
     inkscape:label="Middle"
     style="display:inline"><g
       inkscape:groupmode="layer"
       id="g1347"
       inkscape:label="MiddleDown"
       style="display:inline"
       export-hand-poses="middle,down"><path
         id="path1345"
         style="display:inline;fill:#ffffff;fill-opacity:1;stroke:#000000;stroke-width:1"
         d="m 292.38156,136.78771 c -0.37307,0.60264 -8.03325,0.37262 -13.87693,-1.65523 -4.07721,-1.41486 -10.08575,-2.67645 -13.70105,-3.32451 -4.42797,-0.79373 -6.11936,-0.20548 -8.21872,1.9014 -2.2157,3.15624 -2.19909,7.52537 -1.21306,9.98166 0.84491,2.64017 6.57131,3.27157 12.28417,4.90196 6.45719,1.84281 8.73961,2.39883 12.29634,3.72808 1.10179,0.41177 3.42178,1.64209 5.20308,3.43654 0.67393,0.67891 1.2367,1.92635 1.2367,1.92635"
         inkscape:label="MiddleDown"
         sodipodi:nodetypes="cssccsssc"
         transform="matrix(0.2270142,0.97392334,-0.96717329,0.22859857,141.35982,-234.84032)" /><path
         d="m 64.780732,82.919959 0.01061,1.576342 m 1.573824,-2.631103 c 0.886698,0.865996 0.726298,3.854548 -0.178784,3.954636 m -3.036394,-4.543128 c 0,0 -1.133805,1.695306 -0.459187,3.261169 l 0.684368,1.588493 m 0.329865,-38.966816 c 1.475931,0.248106 3.05513,0.229077 4.131637,0.0207 m -5.327034,1.24343 c 2.264722,0.482657 4.838967,1.221469 6.567032,0.09281"
         style="display:inline;fill:none;stroke:#000000;stroke-width:0.499999;stroke-linecap:round;stroke-linejoin:round;stroke-miterlimit:5;stroke-dasharray:none;stroke-dashoffset:0.793701;stroke-opacity:1;paint-order:markers stroke fill"
         id="path7622-7-6"
         sodipodi:nodetypes="cccccsccccc" /></g><g
       inkscape:groupmode="layer"
       id="g1351"
       inkscape:label="MiddleUp"
       style="display:none"
       export-hand-poses="middle,up"><path
         id="path1349"
         style="display:inline;fill:#ffffff;fill-opacity:1;stroke:#000000;stroke-width:1;stroke-linecap:round"
         d="m 283.44018,154.53359 c 0,0 -0.0933,-0.84336 -3.03138,-2.01725 -4.24118,-1.69452 -5.21329,-1.97013 -8.35852,-2.73758 -3.05341,-0.74505 -7.84093,-2.58121 -12.55499,-3.97987 -4.02704,-1.19481 -14.11314,-5.66404 -19.79773,-7.48986 -5.6846,-1.82582 -14.29266,-4.16385 -16.44566,-5.16444 -2.15299,-1.00059 -4.13657,-1.95578 -4.16763,-4.32468 -0.0311,-2.3689 0.0649,-3.85639 1.56155,-5.15013 1.49668,-1.29373 2.83502,-2.44832 6.58143,-1.74711 3.74641,0.70121 14.49639,3.85528 17.84343,4.69159 3.34705,0.83631 14.60884,3.02033 19.9431,4.85952 3.63935,1.2548 6.32252,2.15114 10.58426,3.79051 3.30325,1.27067 7.64938,3.53504 9.09942,3.84429 3.32084,0.70823 3.92853,-0.66698 4.23117,-1.79644"
         sodipodi:nodetypes="csssssccsssssc"
         inkscape:label="MiddleUp"
         transform="matrix(0.2270142,0.97392334,-0.96717329,0.22859857,141.35982,-234.84032)" /><path
         id="path6028-6"
         style="display:inline;fill:none;stroke:#000000;stroke-width:0.499999;stroke-linecap:round;stroke-linejoin:round;stroke-miterlimit:5;stroke-dasharray:none;stroke-dashoffset:0.793701;stroke-opacity:1;paint-order:markers stroke fill"
         d="m 63.393892,81.596447 c 0.334254,0.185697 -0.223694,-1.535695 0.0915,-2.081622 l 0.32362,-0.560522 m -2.072309,3.873407 c -0.08402,0.102691 -1.132809,-0.647228 -0.351813,-2.92012 0.338588,-0.985374 1.316958,-2.758939 1.577567,-2.732431 m 1.849034,6.316279 c -0.401725,0.618038 1.612666,-0.464058 1.272965,-4.081545 L 65.925049,77.712364 M 64.469608,17.682927 c 0,0 -0.09221,-1.762578 0.114544,-2.935121 0.206749,-1.172531 0.505389,-2.866205 1.16435,-3.556006 0.65896,-0.689803 1.494147,-1.6171938 3.103473,-1.6020868 1.609328,0.01509 2.249252,0.195077 3.283954,1.1835428 1.034703,0.98844 1.67101,2.712628 1.655907,4.321956 -0.0151,1.609327 -0.405628,3.82412 -0.405628,3.82412 0,0 -2.482907,0.368192 -4.199543,0.199833 -1.716639,-0.168345 -0.946433,0.03462 -1.835426,-0.256514 -0.889,-0.291096 -2.881622,-1.179773 -2.881622,-1.179773 z m 0.595342,14.379316 c 1.461708,1.403004 3.841888,0.725911 5.169984,0.587375 m -4.267081,-1.465445 c 1.935181,-0.424904 3.129325,-0.33325 5.172464,0.175278 M 64.685308,53.59623 c 1.764219,0.457657 2.404959,0.61247 3.733055,0.473935 m -4.85633,-2.176884 c 3.767669,-0.750327 3.115489,-0.03102 6.840767,1.08714 m -7.382499,2.181485 c 3.767669,0.750328 3.115491,1.543567 6.84077,0.425417"
         sodipodi:nodetypes="csccsccsccssccscsccccccccccccc" /></g><g
       inkscape:groupmode="layer"
       id="g1355"
       inkscape:label="MiddleRingSimpleJoint"
       style="display:none"
       export-hand-poses="middle,add-link"><path
         id="path1353"
         style="display:inline;fill:#ffffff;fill-opacity:1;stroke:#000000;stroke-width:1"
         d="m 282.4242,156.22739 c 0,0 -3.93216,-0.14058 -9.22398,-0.9257 -2.03806,-0.30238 -6.72097,-1.07797 -9.09672,-1.52267 -2.41009,-0.45113 -6.79136,-0.9532 -9.61604,-1.25527 -5.06211,-0.54136 -12.98032,-1.61214 -17.56402,-2.0227 -11.39419,-1.02058 -17.25133,-1.03289 -17.6741,-1.1675 -1.02421,-0.3261 -3.4595,-0.58081 -3.71318,-3.87213 -0.25367,-3.29132 1.13654,-6.84021 4.66069,-7.28008 3.52414,-0.43986 13.26209,-1.59129 16.27042,-1.5012 3.00833,0.09 11.41354,-0.56221 17.61994,0.11222 6.20638,0.67443 18.71994,1.30544 22.96729,2.13709 4.24735,0.83166 11.00049,1.28202 11.47492,-0.75719"
         sodipodi:nodetypes="cssssssscssc"
         inkscape:label="MiddleRingSimpleJoint"
         transform="matrix(0.2270142,0.97392334,-0.96717329,0.22859857,141.35982,-234.84032)" /><path
         id="path6028-6-21"
         style="display:inline;fill:none;stroke:#000000;stroke-width:0.499999;stroke-linecap:round;stroke-linejoin:round;stroke-miterlimit:5;stroke-dasharray:none;stroke-dashoffset:0.793701;stroke-opacity:1;paint-order:markers stroke fill"
         d="m 63.53384,81.162937 c 0.369247,0.09932 -0.588569,-1.435962 -0.414807,-2.041925 l 0.178405,-0.622166 m -1.07369,4.259689 c -0.05667,0.11997 -1.255738,-0.353952 -1.047805,-2.748268 0.09015,-1.038017 0.610392,-2.99559 0.869673,-3.032911 m 3.322158,5.681334 c -0.240278,0.696864 1.452495,-0.840412 0.247736,-4.268265 L 65.050163,76.781884 M 49.596815,18.941159 c 0,0 -0.515877,-1.687916 -0.598928,-2.875645 -0.08305,-1.187721 -0.68432,-2.956809 -0.211805,-3.785538 0.472507,-0.828729 1.058528,-1.930623 2.623706,-2.3052956 1.565174,-0.3746901 2.229633,-0.3548598 3.472733,0.3539276 1.243094,0.708758 1.742846,2.227796 2.117523,3.792974 0.374672,1.56518 0.531532,3.808663 0.531532,3.808663 0,0 -1.785311,0.957922 -3.491687,1.209857 -1.706373,0.251945 -0.909934,0.262589 -1.842963,0.195102 -0.933016,-0.06738 -2.600148,-0.394128 -2.600148,-0.394128 z m 4.163284,13.64773 c 1.757708,1.007714 3.90338,-0.225082 5.158513,-0.6808 m -4.494853,-0.389615 c 1.774904,-0.880443 2.955748,-1.080404 5.061234,-1.081216 M 58.013041,53.68207 c 1.822531,0.01725 2.481689,0.01246 3.736821,-0.443251 M 56.51115,52.301448 c 3.474233,-1.639518 3.015442,-0.783805 6.900566,-0.600108 m -6.635456,3.902674 c 3.837273,-0.183441 3.396369,0.744011 6.740489,-1.242156"
         sodipodi:nodetypes="csccsccsccssccscsccccccccccccc" /></g><g
       inkscape:groupmode="layer"
       id="g1359"
       inkscape:label="MiddleIndexSimpleJoint"
       style="display:none"
       export-hand-poses="middle,abd-link"><path
         id="path1357"
         style="display:inline;fill:#ffffff;fill-opacity:1;stroke:#000000;stroke-width:1"
         d="m 282.73194,155.91858 c 0.64543,-0.62947 0.83602,-1.512 0.42494,-2.24437 -1.08446,-1.93209 -5.35523,-3.84949 -9.0039,-5.04334 -5.03175,-1.6464 -10.48042,-3.28811 -19.50592,-8.94769 -9.02549,-5.65959 -18.29396,-8.77878 -23.90998,-11.37175 -5.61601,-2.59298 -7.97117,-3.67065 -7.81516,-8.32052 0.15603,-4.64987 4.97664,-6.25314 8.14093,-5.58461 3.16428,0.66853 16.42415,5.6032 23.51491,8.4559 7.09075,2.8527 11.5246,3.89315 18.14485,7.46958 6.62026,3.57645 15.4833,7.44877 15.4833,7.44877"
         sodipodi:nodetypes="csssscsssc"
         inkscape:label="MiddleIndexSimpleJoint"
         transform="matrix(0.2270142,0.97392334,-0.96717329,0.22859857,141.35982,-234.84032)" /><path
         id="path6028-6-0"
         style="display:inline;fill:none;stroke:#000000;stroke-width:0.499999;stroke-linecap:round;stroke-linejoin:round;stroke-miterlimit:5;stroke-dasharray:none;stroke-dashoffset:0.793701;stroke-opacity:1;paint-order:markers stroke fill"
         d="m 63.069815,82.266684 c 0.309132,0.225049 -0.03488,-1.551509 0.344505,-2.054952 l 0.389517,-0.516906 m -2.528912,3.591984 c -0.09591,0.0917 -1.045487,-0.780459 0.0067,-2.94123 0.456151,-0.936766 1.643373,-2.577877 1.898808,-2.519805 m 1.065492,6.49454 c -0.474051,0.564471 1.6572,-0.264068 1.760891,-3.895988 l 0.04865,-1.704305 m 5.87116,-59.759359 c 0,0 0.123267,-1.760678 0.47139,-2.899283 0.348103,-1.138595 0.850924,-2.78325 1.589039,-3.387603 0.738114,-0.604354 1.680096,-1.423048 3.275585,-1.211926 1.595496,0.2111 2.208714,0.467739 3.115238,1.574934 0.906531,1.107172 1.32797,2.896054 1.116851,4.491545 -0.211121,1.595492 -0.868648,3.746183 -0.868648,3.746183 0,0 -2.509271,0.06286 -4.192592,-0.313453 -1.683328,-0.376296 -0.943601,-0.08096 -1.790485,-0.478283 -0.846902,-0.397269 -2.716368,-1.522161 -2.716368,-1.522161 z m -1.161491,14.34469 c 1.27983,1.570684 3.724785,1.188708 5.059864,1.213059 m -4.056697,-1.974548 c 1.972541,-0.185897 3.146613,0.05062 5.112549,0.804336 m -9.116876,21.284362 c 1.695294,0.669251 2.312392,0.900995 3.647471,0.925348 M 66.85661,52.805413 c 3.831027,-0.285571 3.096048,0.348896 6.657288,1.912717 m -7.593327,1.265524 c 3.648144,1.203897 2.904155,1.911744 6.737935,1.255926"
         sodipodi:nodetypes="csccsccsccssccscsccccccccccccc" /></g><g
       inkscape:groupmode="layer"
       id="g1180"
       inkscape:label="MiddleRingComplexJoint"
       style="display:none"
       export-hand-poses="middle,multi-link"><path
         id="path1178"
         style="display:inline;fill:#ffffff;fill-opacity:1;stroke:#000000;stroke-width:0.996919"
         d="m 56.610372,77.92297 c 0,0 -0.533781,-3.814952 -0.255582,-9.159302 0.10715,-2.058291 0.433273,-6.795497 0.64939,-9.203744 0.219243,-2.443057 0.303232,-6.853517 0.335994,-9.694927 0.05873,-5.092094 0.37214,-13.078853 0.346552,-17.682005 -0.0636,-11.442546 -0.603031,-17.275027 -0.509702,-17.708942 0.226092,-1.051208 0.248681,-3.500369 3.480269,-4.071046 3.23159,-0.570667 6.872759,0.470396 7.639732,3.936479 0.766962,3.466073 2.822942,13.049757 3.017148,16.053517 0.194295,3.003753 1.63098,11.30883 1.54839,17.553025 -0.06946,5.251214 0.311558,14.94049 0.183148,20.452197 -0.02428,1.042217 0.09365,8.994026 0.02645,9.679249"
         sodipodi:nodetypes="cssssssscssc"
         inkscape:label="MiddleRingComplexJoint" /><path
         id="path6028-6-8"
         style="display:inline;fill:none;stroke:#000000;stroke-width:0.499999;stroke-linecap:round;stroke-linejoin:round;stroke-miterlimit:5;stroke-dasharray:none;stroke-dashoffset:0.793701;stroke-opacity:1;paint-order:markers stroke fill"
         d="m 64.457461,84.512797 c 0.351834,0.149742 -0.382991,-1.503899 -0.126586,-2.079782 l 0.263256,-0.59128 m -1.656075,4.068803 c -0.07283,0.110911 -1.194257,-0.525271 -0.655123,-2.867347 0.233733,-1.015369 1.021358,-2.881485 1.283311,-2.882363 m 2.499134,6.088402 c -0.334922,0.656641 1.555324,-0.630086 0.839354,-4.192249 L 66.568756,80.385413 M 59.541703,20.890436 c 0,0 -0.672433,-2.710782 -0.589378,-3.898513 0.08305,-1.18772 -0.133505,-2.745589 0.449743,-3.500491 0.583248,-0.754905 1.279107,-1.310748 2.881195,-1.463945 1.602089,-0.153215 2.332949,0.261412 3.465308,1.136305 1.132353,0.874868 1.250201,2.523101 1.4034,4.125191 0.153195,1.60209 -0.0037,3.84557 -0.0037,3.84557 0,0 -1.735619,0.625709 -3.46045,0.637711 -1.724831,0.01201 -0.937629,0.133363 -1.852183,-0.06328 -0.914557,-0.196576 -1.866139,-0.390807 -1.866139,-0.390807 z m 1.399928,14.184837 c 1.600356,1.242531 3.896719,0.320348 5.20306,0.04375 m -4.396885,-1.011388 c 1.880164,-0.624858 3.077346,-0.65853 5.162453,-0.366304 m -4.095272,22.789696 c 1.802392,0.270737 2.455804,0.357725 3.762143,0.08113 m -5.057275,-1.657381 c 3.668599,-1.140044 3.09518,-0.356508 6.91693,0.36613 m -7.11403,2.941216 c 3.825462,0.352389 3.25977,1.209455 6.847765,-0.291971"
         sodipodi:nodetypes="csccsccsccssccscsccccccccccccc" /></g></g><g
     inkscape:groupmode="layer"
     id="layer3"
     inkscape:label="Thumb"><g
       inkscape:groupmode="layer"
       id="layer10"
       inkscape:label="ThumbUp"
       style="display:inline"
       export-hand-poses="thumb,up"><path
         id="path1110"
         style="display:inline;fill:#ffffff;fill-opacity:1;stroke:#000000;stroke-width:1"
         transform="matrix(0.25712596,0.96630437,-0.95960713,0.25892048,128.969,-239.16317)"
         d="m 375.82844,213.73795 c 0,0 -11.47454,-7.01215 -12.84791,-7.63694 -1.37337,-0.62479 -6.432,-1.55225 -10.19139,-2.21718 M 332.6903,125.64377 c 2.69886,-1.82892 3.27638,-3.24632 3.12185,-7.14814 -0.15133,-3.82115 -1.29868,-8.58845 -3.66071,-12.10164 -2.36203,-3.51318 -3.44027,-3.8561 -4.06744,-5.81533 -0.62716,-1.959214 -1.18107,-2.881712 -2.05145,-5.17613 -0.87039,-2.294421 -2.57142,-6.863614 -3.00831,-10.103986 -0.4369,-3.240373 -0.60132,-8.135903 1.57592,-9.811733 2.17724,-1.675833 5.03902,-2.547181 7.11974,0.638602 2.08071,3.185781 4.11236,6.655447 6.16619,8.42989 2.05384,1.774444 5.43754,6.110439 6.98796,9.226139 1.55043,3.115702 2.8881,5.715346 5.19632,8.791068 2.30823,3.07573 3.917,6.10805 6.52611,8.59834 2.60911,2.49028 5.39691,5.89253 6.57959,9.30573 1.18268,3.4132 2.4852,14.80056 5.15091,20.57802 m -1.07074,-2.67202 c 2.01128,5.05736 3.50144,7.99489 4.07624,10.18311 0.50221,1.91188 0.59491,3.17709 3.11265,5.9187 2.07334,2.25769 3.59958,2.72666 7.86515,5.02469 3.57076,1.92371 9.02442,4.70734 9.36949,4.89251"
         sodipodi:nodetypes="csccssssssssssssccsssc"
         inkscape:label="ThumbUp" /><path
         id="path6022"
         style="fill:none;stroke:#000000;stroke-width:0.499999;stroke-linecap:round;stroke-linejoin:round;stroke-miterlimit:5;stroke-dasharray:none;stroke-dashoffset:0.793701;stroke-opacity:1;paint-order:markers stroke fill"
         d="m 93.943653,114.84867 c 0,0 1.467829,5.26064 1.467829,6.54409 0,1.28344 0,1.28344 0,1.28344 m 6.194288,-6.66168 c 0,0 -0.79381,2.11622 -1.47446,2.41874 -0.680651,0.30251 -0.680651,0.30251 -0.680651,0.30251 m -5.507006,-3.8871 c 0,0 1.423101,3.50896 2.179381,3.81147 0.756277,0.30251 0.756277,0.30251 0.756277,0.30251 m 32.221269,-3.48415 -1.36509,-1.43166 m 3.45274,0.47761 c 0,0 -0.94736,-1.30952 -2.46958,-1.76328 -1.52222,-0.45377 -1.52222,-0.45377 -1.52222,-0.45377 m 1.65415,4.90527 c 0,0 -2.40077,-1.1995 -2.85454,-2.33392 -0.45376,-1.13442 -0.45376,-1.13442 -0.45376,-1.13442 m 10.15916,-6.1842 c 0,0 -1.99135,-2.43738 -2.29386,-3.11803 -0.30251,-0.68065 -1.05879,-2.57135 -1.13442,-3.17637 -0.0756,-0.60502 -0.22689,-1.966326 -0.22689,-1.966326 0,0 2.11759,-1.966325 3.02512,-2.571347 0.90753,-0.605023 2.79823,-0.907535 3.85702,-0.605023 1.05879,0.302511 3.76362,1.495949 3.56053,2.368867 -0.20309,0.872922 -0.20309,0.872922 -0.20309,0.872922" /></g><g
       inkscape:groupmode="layer"
       id="layer9"
       inkscape:label="ThumbClose"
       style="display:none"
       export-hand-poses="thumb,down"><path
         id="path1107"
         style="display:inline;fill:#ffffff;fill-opacity:1;stroke:#000000;stroke-width:1"
         transform="matrix(0.25712596,0.96630437,-0.95960713,0.25892048,128.969,-239.16317)"
         d="m 375.82844,213.73795 c 0,0 -11.47454,-7.01215 -12.84791,-7.63694 -1.37337,-0.62479 -6.432,-1.55225 -10.19139,-2.21718 m -12.68977,-77.70685 c -4.96279,2.51499 -12.89841,0.534 -17.11948,-0.64288 -2.11605,-0.58998 4.41052,-6.38586 6.18932,-7.01997 5.70819,-2.3855 10.59821,-3.7979 16.10744,-4.95749 2.99934,-0.65151 6.13547,0.10321 7.66284,1.11166 1.52736,1.00845 6.74875,6.18065 8.38424,10.29964 1.63549,4.11898 2.08454,4.36737 6.44495,14.60923 m -0.51244,-1.19459 c 2.01128,5.05736 3.50144,7.99489 4.07624,10.18311 0.50221,1.91188 0.59491,3.17709 3.11265,5.9187 2.07334,2.25769 3.59958,2.72666 7.86515,5.02469 3.57076,1.92371 9.02442,4.70734 9.36949,4.89251"
         inkscape:label="ThumbClose"
         sodipodi:nodetypes="csccsccssccsssc" /></g></g></svg>
