<?xml version="1.0" encoding="UTF-8" standalone="no"?>
<!-- Created with Inkscape (http://www.inkscape.org/) -->

<svg
   width="149mm"
   height="189mm"
   viewBox="0 0 149 189"
   version="1.1"
   id="svg5"
   xml:space="preserve"
   inkscape:version="1.2.2 (732a01da63, 2022-12-09)"
   sodipodi:docname="handPoses.svg"
   inkscape:export-filename="ThumbPinkyUp.png"
   inkscape:export-xdpi="96"
   inkscape:export-ydpi="96"
   xmlns:inkscape="http://www.inkscape.org/namespaces/inkscape"
   xmlns:sodipodi="http://sodipodi.sourceforge.net/DTD/sodipodi-0.dtd"
   xmlns="http://www.w3.org/2000/svg"
   xmlns:svg="http://www.w3.org/2000/svg"><sodipodi:namedview
     id="namedview7"
     pagecolor="#ffffff"
     bordercolor="#eeeeee"
     borderopacity="1"
     inkscape:showpageshadow="0"
     inkscape:pageopacity="1"
     inkscape:pagecheckerboard="false"
     inkscape:deskcolor="#505050"
     inkscape:document-units="mm"
     showgrid="false"
     inkscape:zoom="0.87462235"
     inkscape:cx="130.34197"
     inkscape:cy="190.36788"
     inkscape:window-width="1440"
     inkscape:window-height="890"
     inkscape:window-x="214"
     inkscape:window-y="1073"
     inkscape:window-maximized="1"
     inkscape:current-layer="layer9"
     showguides="false"
     inkscape:pageshadow="2"><inkscape:grid
       type="xygrid"
       id="grid515"
       originx="0"
       originy="0" /><sodipodi:guide
       position="160.66239,27.168302"
       orientation="0,-1"
       id="guide1784"
       inkscape:locked="false" /></sodipodi:namedview><defs
     id="defs2" /><g
     inkscape:groupmode="layer"
     id="g1375"
     inkscape:label="Index"
     style="display:inline"><g
       inkscape:groupmode="layer"
       id="g1365"
       inkscape:label="IndexDown"
       style="display:none"
       export-hand-poses="index,down"><path
         id="path1363"
         style="display:inline;fill:#ffffff;fill-opacity:1;stroke:#000000;stroke-width:1"
         d="m 305.68155,121.00578 c 1.24577,0.66911 1.60746,0.55177 4.50054,3.08227 2.89309,2.5305 3.47295,2.62535 6.37118,4.0072 2.89822,1.38186 8.28314,5.00374 10.56719,6.64472 2.28404,1.64097 3.20464,3.40083 3.22164,4.91858 0.017,1.51775 -0.55395,3.42271 -1.81366,4.96152 -1.25971,1.53882 -3.70373,1.39843 -3.70373,1.39843 -2.688,-0.81104 -9.35479,-3.2632 -11.21435,-4.00358 -1.85955,-0.74038 -9.87498,-3.1791 -12.1339,-3.78437 -2.25892,-0.60528 -7.26565,-1.71175 -11.4498,-3.63716 -3.12512,-1.67867 -3.22854,-3.87867 -3.67113,-5.3894 -0.44259,-1.51072 -0.36773,-4.27494 0.38373,-5.94994 0.75145,-1.675 2.69695,-3.51429 5.85053,-4.6667 3.15359,-1.15241 4.91751,-2.31402 8.97249,-1.40907 4.05498,0.90495 10.08949,3.00611 11.29758,3.69298 1.20809,0.68687 6.36771,1.72521 10.04143,3.37538 3.67371,1.65018 7.84492,3.25201 10.6145,0.79675"
         inkscape:label="IndexDown"
         sodipodi:nodetypes="cssssscsscssssssc"
         transform="matrix(0.25712596,0.96630437,-0.95960713,0.25892048,128.96899,-239.16317)" /></g><g
       inkscape:groupmode="layer"
       id="g1369"
       inkscape:label="IndexUp"
       style="display:inline"
       export-hand-poses="index,up"><path
         id="path1367"
         style="display:inline;fill:#ffffff;fill-opacity:1;stroke:#000000;stroke-width:1"
         d="m 291.12739,136.70851 c 0,0 2.06514,-2.40887 0.18452,-4.42598 -1.88062,-2.0171 -5.49012,-5.91945 -7.14015,-6.78957 -1.65003,-0.87012 -17.28595,-10.88049 -19.22257,-12.59779 -1.93663,-1.7173 -14.44941,-9.00765 -15.86558,-9.47271 -1.41617,-0.46506 -5.50342,-3.10102 -5.70861,-5.210372 -0.20519,-2.109357 1.12999,-5.175557 3.24508,-5.721607 2.11509,-0.54605 2.16936,-1.387499 7.01399,0.33861 4.84463,1.72611 9.1516,3.222556 15.06581,5.748852 5.9142,2.526297 14.01609,6.152377 18.62952,9.699707 4.61343,3.54734 10.97396,6.96362 14.80594,9.27438 3.83198,2.31076 10.39975,5.31894 12.47624,5.87533 2.07649,0.55639 5.25972,1.18794 8.36831,2.10673 2.78137,0.82208 9.29653,1.01421 10.5359,-0.4907"
         sodipodi:nodetypes="cssssssssssssc"
         inkscape:label="IndexUp"
         transform="matrix(0.25712596,0.96630437,-0.95960713,0.25892048,128.96899,-239.16317)" /></g><g
       inkscape:groupmode="layer"
       id="g1456"
       inkscape:label="IndexMiddleSimpleJoint"
       style="display:none"
       export-hand-poses="index,add-link"><path
         id="path1432"
         style="display:inline;fill:#ffffff;fill-opacity:1;stroke:#000000;stroke-width:1"
         d="m 233.6993,115.15813 c 0,0 -1.29268,-2.45006 0.0642,-4.79408 1.35684,-2.34401 3.33877,-3.28646 5.91574,-3.14074 2.57698,0.14568 11.25349,1.55665 13.90016,2.08831 2.64668,0.53168 11.45723,1.65065 15.52982,2.72189 4.07258,1.07125 13.20841,3.99134 18.28523,6.20969 4.44597,1.9427 11.67205,3.95892 17.9255,5.72099 0.59239,0.16692 10.16725,2.94982 18.08279,3.38945 3.94116,0.21889 4.68302,0.34021 7.52527,-2.32135"
         sodipodi:nodetypes="cscsssssc"
         inkscape:label="IndexMiddleSimpleJoint"
         transform="matrix(0.22701421,0.97392334,-0.96717329,0.22859857,141.35982,-234.84033)" /></g><g
       inkscape:groupmode="layer"
       id="g1022"
       inkscape:label="IndexMiddleComplexJoint"
       style="display:none"
       export-hand-poses="index,multi-link"><path
         id="path1020"
         style="display:inline;fill:#ffffff;fill-opacity:1;stroke:#000000;stroke-width:0.996919"
         d="m 73.042261,78.768957 c 0.205964,-3.954426 -0.130528,-7.750448 -0.0037,-17.048846 0.08939,-6.554961 -0.184505,-12.349349 -0.472317,-20.153718 -0.151819,-4.116778 -1.102145,-9.595255 -1.642458,-14.13141 -0.36536,-3.067344 -0.674342,-7.22807 1.614235,-9.074037 3.387564,-2.73241 5.878,-1.796689 6.404622,-1.636018 2.575077,0.785648 3.936524,2.500426 4.380596,5.043509 0.444114,2.543083 1.049152,8.670051 1.135777,11.369242 0.08661,2.699204 1.004489,11.5358 0.89295,15.747074 -0.111551,4.211267 1.236683,13.70624 1.689981,20.875286 0.306223,4.843017 2.124063,11.020422 1.839458,17.51361 -0.02696,0.6151 -0.544877,10.576446 0.826865,18.386071 0.682995,3.88842 -0.02534,6.21284 5.392352,10.09442"
         sodipodi:nodetypes="cssssscsssssc"
         inkscape:label="IndexMiddleComplexJoint" /></g></g><g
     inkscape:groupmode="layer"
     id="g1329"
     inkscape:label="Ring"
     style="display:inline"><g
       inkscape:groupmode="layer"
       id="g1319"
       inkscape:label="RingDown"
       style="display:none"
       export-hand-poses="ring,down"><path
         id="path1317"
         style="display:inline;fill:#ffffff;fill-opacity:1;stroke:#000000;stroke-width:1"
         d="m 313.69586,172.79844 c 2.85388,0.0237 4.71901,-0.30318 7.36756,-1.5623 2.64854,-1.2591 3.37921,-6.54166 2.68336,-8.09769 -0.69585,-1.55604 -2.42288,-3.2068 -4.45656,-3.92292 -3.12344,-1.09986 -4.01059,-1.30205 -4.72938,-1.49465 -0.71878,-0.1926 -4.95702,-0.90024 -8.29569,-1.53804 -3.33866,-0.63779 -12.91825,-2.63733 -15.63366,-3.36492 -2.71541,-0.7276 -6.753,-0.35428 -8.2819,-0.0792 -1.5289,0.27513 -5.20003,1.51703 -6.04455,4.02991 -0.84452,2.51288 -2.87443,7.5329 -0.41735,10.50244 2.45707,2.96955 7.53954,2.68435 9.43881,3.18629 3.28567,0.86835 8.92374,1.52001 8.92374,1.52001 0,0 3.79812,0.46083 8.89211,0.67332 5.38003,0.17768 7.89616,0.12572 10.55351,0.14775 z"
         sodipodi:nodetypes="ssssssscsssccs"
         inkscape:label="RingDown"
         transform="matrix(0.25712596,0.96630437,-0.95960713,0.25892048,128.96899,-239.16317)" /></g><g
       inkscape:groupmode="layer"
       id="g1315"
       inkscape:label="RingUp"
       style="display:inline"
       export-hand-poses="ring,up"><path
         id="path1313"
         style="display:inline;fill:#ffffff;fill-opacity:1;stroke:#000000;stroke-width:1;stroke-linecap:round"
         d="m 283.06414,171.19322 c 4.70394,-1.45376 -3.92952,-1.7562 -5.56382,-2.16021 -2.29846,-0.5682 -15.99934,-1.4387 -20.37918,-2.3993 -4.37983,-0.9606 -13.43664,-3.58382 -18.77992,-4.24375 -5.34328,-0.65995 -11.94006,-1.19836 -13.64826,-1.82899 -1.7082,-0.63063 -5.4899,-1.83466 -5.58601,-5.07582 -0.0961,-3.24115 0.8532,-4.58757 1.78449,-5.33232 0.93129,-0.74476 2.50502,-1.59293 6.57205,-1.29169 6.16164,0.45641 9.94887,0.91149 12.67068,1.08389 2.7218,0.17242 6.30672,0.35933 8.48057,0.61754 2.17383,0.25824 8.26575,0.20205 10.48976,0.30274 2.22403,0.10034 5.12958,0.4658 7.38464,0.78924 2.58699,0.5297 5.37543,1.10404 7.18397,1.41953 1.15308,0.20115 5.87446,0.70623 9.01206,1.01515 3.18061,0.31316 3.21849,-1.39679 3.21849,-1.39679"
         sodipodi:nodetypes="csssssccccccssc"
         inkscape:label="RingUp"
         transform="matrix(0.25712596,0.96630437,-0.95960713,0.25892048,128.96899,-239.16317)" /></g><g
       inkscape:groupmode="layer"
       id="g1323"
       inkscape:label="RingMiddleSimpleJoint"
       style="display:none"
       export-hand-poses="ring,abd-link"><path
         id="path1321"
         style="display:inline;fill:#ffffff;fill-opacity:1;stroke:#000000;stroke-width:1"
         d="m 280.86785,174.48701 c 3.64411,-0.95652 1.26487,-3.07347 0.0995,-3.27624 -16.81051,-2.92499 -41.8768,-2.02544 -57.37573,-7.17854 -1.7082,-0.63063 -5.4899,-1.83466 -5.58601,-5.07582 -0.0961,-3.24115 0.8532,-4.58757 1.78449,-5.33232 0.93129,-0.74476 0.39781,-1.52201 6.57205,-1.29169 6.17423,0.23035 9.94887,0.91149 12.67068,1.08389 2.7218,0.17242 6.30672,0.35933 8.48057,0.61754 2.17383,0.25824 8.31349,0.56872 10.5375,0.66941 6.08439,0.86366 9.60967,0.97611 14.52087,1.8421 1.80853,0.31549 9.25263,0.57226 9.25263,0.57226"
         sodipodi:nodetypes="cscsccccccc"
         inkscape:label="RingMiddleSimpleJoint"
         transform="matrix(0.18985855,0.98195355,-0.97514786,0.1911836,154.08128,-230.84422)" /></g><g
       inkscape:groupmode="layer"
       id="g1184"
       inkscape:label="RingMiddlePinkyComplexJoint"
       transform="rotate(4.8700461,57.169911,108.92835)"
       style="display:none"
       export-hand-poses="ring,multi-link"><path
         id="path1182"
         style="display:inline;fill:#ffffff;fill-opacity:1;stroke:#000000;stroke-width:1"
         d="m 283.27493,172.91846 c -5.64796,-0.98273 -14.68312,-1.87768 -21.51896,-2.37157 -13.51029,-0.97612 -25.66805,-3.02415 -35.95968,-6.44592 -1.7082,-0.63063 -5.4899,-1.83466 -5.58601,-5.07582 -0.0961,-3.24115 0.8532,-4.58757 1.78449,-5.33232 0.93129,-0.74476 0.39781,-1.52201 6.57205,-1.29169 6.17423,0.23035 7.7442,0.84275 10.46601,1.01515 2.7218,0.17242 6.30672,0.35933 8.48057,0.61754 2.17383,0.25824 8.31349,0.56872 10.5375,0.66941 6.08439,0.86366 9.60967,0.97611 14.52087,1.8421 1.80853,0.31549 11.36602,1.68802 11.36602,1.68802"
         sodipodi:nodetypes="cscsccccccc"
         inkscape:label="RingMiddlePinkyComplexJoint"
         transform="matrix(0.18985855,0.98195355,-0.97514786,0.1911836,154.08128,-230.84422)" /></g><g
       inkscape:groupmode="layer"
       id="g1327"
       inkscape:label="RingPinkySimpleJoint"
       style="display:none"
       export-hand-poses="ring,add-link"><path
         id="path1325"
         style="display:inline;fill:#ffffff;fill-opacity:1;stroke:#000000;stroke-width:1"
         d="m 285.74742,152.70736 c -0.88792,2.11129 -3.22163,3.08799 -6.51583,3.45469 -3.33251,0.37097 -6.4559,0.53752 -12.13181,0.36053 -5.67589,-0.17698 -13.52324,2.07395 -20.7425,1.83439 -7.21926,-0.23956 -10.55132,1.20669 -14.44774,1.16829 -3.89642,-0.0384 -6.89907,0.38469 -8.44896,2.23097 -1.54988,1.84628 -1.80711,4.80363 -0.84923,6.41495 0.95789,1.61131 3.11362,2.73966 6.75127,3.04219 3.63766,0.30253 9.45813,0.29371 9.45813,0.29371 5.91018,-0.0448 16.19474,-0.11291 22.70298,-0.36284 6.50824,-0.24994 10.26184,-1.38674 15.83638,-0.89494 5.57454,0.4918 6.55873,0.78454 6.55873,0.78454"
         sodipodi:nodetypes="csssscsscssc"
         inkscape:label="RingPinkySimpleJoint"
         transform="matrix(0.25712596,0.96630437,-0.95960713,0.25892048,128.96899,-239.16317)" /></g></g><g
     inkscape:groupmode="layer"
     id="g1343"
     inkscape:label="Pinky"
     style="display:inline"><g
       inkscape:groupmode="layer"
       id="g1341"
       inkscape:label="PinkyDown"
       style="display:none"
       export-hand-poses="pinky,down"><path
         id="path1339"
         style="display:inline;fill:#ffffff;fill-opacity:1;stroke:#000000;stroke-width:1"
         d="m 353.74771,204.05423 c -3.71475,-0.58294 -7.49193,-1.07671 -12.8961,-2.0729 -4.5935,-0.84676 -8.75261,-0.79696 -14.89248,-1.9006 -7.20324,-1.29478 -20.26909,-5.85299 -24.3464,-7.88709 -4.07731,-2.0341 -7.28757,-3.15108 -9.53946,-4.01127 -2.25188,-0.86019 -6.91958,-3.56609 -8.49967,-5.01666 -1.5801,-1.45057 -5.31658,-2.94102 -5.76136,-5.11458 -0.44479,-2.17355 -0.71838,-4.98603 0.97753,-6.84278 1.6959,-1.85676 5.2929,-3.46092 7.60898,-2.84033 2.31608,0.6206 8.21383,0.83131 11.87195,1.55471 3.65812,0.72339 8.95634,1.71505 11.70882,2.62377 2.75247,0.90872 7.22645,0.82353 8.95061,2.05591 1.72416,1.23238 1.92781,4.62531 1.65535,5.3227 -0.27246,0.69738 -0.80326,3.63672 -5.91196,4.49342 -5.10869,0.85671 -12.47767,-1.03221 -14.3203,-1.18354 -1.84262,-0.15134 -8.1279,0.30451 -9.43287,0.38283 -1.30497,0.0783 -3.93242,-0.73563 -3.93242,-0.73563"
         sodipodi:nodetypes="csssssssssssssscc"
         inkscape:label="PinkyDown"
         transform="matrix(0.25712596,0.96630437,-0.95960713,0.25892048,128.96899,-239.16317)" /></g><g
       inkscape:groupmode="layer"
       id="g1333"
       inkscape:label="PinkyUp"
       style="display:inline"
       export-hand-poses="pinky,up"><path
         style="display:inline;fill:#ffffff;fill-opacity:1;stroke:#000000;stroke-width:1.00008;stroke-linecap:square;stroke-dasharray:none"
         d="m 352.78914,203.88383 c -2.36756,-0.50382 -4.94438,-1.53877 -8.42709,-2.0536 -3.48271,-0.51482 -8.11033,-2.19762 -15.98954,-3.08753 -7.87921,-0.88993 -16.03934,-3.4469 -20.74042,-5.50695 -5.18927,-2.27398 -13.05522,-3.9645 -16.6979,-4.79153 -7.55042,-1.35165 -6.19595,-0.43701 -13.3675,-0.75915 -6.99559,0.3616 -7.90156,0.38315 -14.71682,0.66516 -10.75507,0.44504 -12.54378,1.44196 -20.38024,1.66615 -3.45249,0.0988 -7.55157,0.51883 -9.6943,-1.9964 -2.14272,-2.51523 -1.38923,-5.66038 -0.0162,-6.95513 1.37308,-1.29475 7.89057,-4.2442 12.14991,-4.52144 4.25935,-0.27726 14.03968,-2.51965 19.49808,-3.36733 9.35695,-1.74864 17.21389,-0.75891 19.81562,-2.50231"
         id="path1331"
         sodipodi:nodetypes="csssccsscsscc"
         inkscape:label="PinkyUp"
         transform="matrix(0.25712596,0.96630437,-0.95960713,0.25892048,128.96899,-239.16317)" /></g><g
       inkscape:groupmode="layer"
       id="g1337"
       inkscape:label="PinkyRingSimpleJoint"
       style="display:none"
       export-hand-poses="pinky,abd-link"><path
         id="path1335"
         style="display:inline;fill:#ffffff;fill-opacity:1;stroke:#000000;stroke-width:1"
         d="m 352.78914,203.88383 c -3.71863,-0.50356 -7.26735,-1.59815 -12.42303,-2.04195 -5.15569,-0.44382 -14.06382,-2.18259 -26.00147,-6.11279 -11.93767,-3.93019 -14.39361,-6.2844 -17.90458,-6.98045 -3.51096,-0.69604 -6.72324,-2.85944 -16.39959,-3.02145 -9.67636,-0.162 -14.17975,-0.74326 -19.67559,-1.20972 -5.49584,-0.46646 -11.4639,-1.08496 -14.2719,-2.07585 -2.80801,-0.99091 -8.1211,-1.48539 -9.76467,-3.66491 -1.64356,-2.17953 -1.54473,-5.83254 0.94521,-7.25267"
         sodipodi:nodetypes="csssssssc"
         inkscape:label="PinkyRingSimpleJoint"
         transform="matrix(0.25712596,0.96630437,-0.95960713,0.25892048,128.96899,-239.16317)" /></g><g
       inkscape:groupmode="layer"
       id="g1026"
       inkscape:label="PinkyRingComplexJoint"
       style="display:none"
       export-hand-poses="pinky,multi-link"><path
         id="path1024"
         style="display:inline;fill:#ffffff;fill-opacity:1;stroke:#000000;stroke-width:1"
         transform="matrix(0.25712596,0.96630437,-0.95960713,0.25892048,128.96899,-239.16317)"
         d="m 352.78914,203.88383 c -3.71863,-0.50356 -7.26735,-1.59815 -12.42303,-2.04195 -5.15569,-0.44382 -14.06382,-2.18259 -26.00147,-6.11279 -11.93767,-3.93019 -14.39361,-6.2844 -17.90458,-6.98045 -3.51096,-0.69604 -15.05976,-5.16553 -18.99133,-8.28794 -2.49476,-1.9813 -15.17736,-5.23999 -19.71858,-7.01301 -4.95557,-1.93478 -11.43189,-4.23255 -14.04236,-5.66727 -2.61047,-1.43475 -7.77143,-2.78636 -9.04258,-5.20556 -0.78036,-1.48517 -0.65679,-3.50924 0.17592,-5.08163 0.12235,-0.23101 1.02464,-3.9689 4.95908,-3.3599 4.13,0.63928 5.81992,1.56684 11.78227,3.14008 4.36871,1.1527 9.43788,2.11901 14.09592,3.27293 9.20407,2.28009 16.95028,4.47821 18.33298,4.86673"
         sodipodi:nodetypes="cssssccccscsc"
         inkscape:label="PinkyRingComplexJoint" /></g></g><g
     inkscape:groupmode="layer"
     id="g1361"
     inkscape:label="Middle"
     style="display:inline"><g
       inkscape:groupmode="layer"
       id="g1347"
       inkscape:label="MiddleDown"
       style="display:none"
       export-hand-poses="middle,down"><path
         id="path1345"
         style="display:inline;fill:#ffffff;fill-opacity:1;stroke:#000000;stroke-width:1"
         d="m 282.88242,154.56064 c -0.56598,-0.15176 -3.06676,-1.58989 -2.49389,-1.29466 1.22322,0.6304 2.65315,1.61882 6.09504,1.87527 3.44189,0.25645 11.31126,1.70828 14.12789,2.0393 2.81662,0.33102 6.73608,1.19061 9.89155,1.61242 3.15547,0.42181 7.35366,1.24408 10.31053,0.82581 2.95687,-0.41826 3.53377,-0.99001 4.75214,-2.60043 1.21837,-1.61043 1.49334,-4.45464 0.67375,-6.35936 -0.54775,-1.27297 -4.03451,-3.66529 -5.54416,-4.13032 -1.50963,-0.46504 -7.43306,-2.28702 -9.29262,-3.0274 -1.85955,-0.74038 -8.81519,-3.13781 -11.07411,-3.74308 -2.25892,-0.60528 -7.20191,-1.9782 -10.32451,-2.48482 -1.34726,-0.21858 -3.76191,-0.65774 -5.438,-0.50158 -1.6761,0.15617 -5.07071,1.30453 -6.5301,2.9109 -2.2157,3.15624 -2.14079,6.9364 -1.15476,9.39269 0.84782,2.03949 3.50736,4.1906 3.50736,4.1906"
         inkscape:label="MiddleDown"
         sodipodi:nodetypes="cssssssssssssccc"
         transform="matrix(0.2270142,0.97392334,-0.96717329,0.22859857,141.35982,-234.84032)" /></g><g
       inkscape:groupmode="layer"
       id="g1351"
       inkscape:label="MiddleUp"
       style="display:inline"
       export-hand-poses="middle,up"><path
         id="path1349"
         style="display:inline;fill:#ffffff;fill-opacity:1;stroke:#000000;stroke-width:1;stroke-linecap:round"
         d="m 283.44018,154.53359 c 0,0 -0.0933,-0.84336 -3.03138,-2.01725 -4.24118,-1.69452 -5.21329,-1.97013 -8.35852,-2.73758 -3.05341,-0.74505 -7.84093,-2.58121 -12.55499,-3.97987 -4.02704,-1.19481 -14.11314,-5.66404 -19.79773,-7.48986 -5.6846,-1.82582 -14.29266,-4.16385 -16.44566,-5.16444 -2.15299,-1.00059 -4.13657,-1.95578 -4.16763,-4.32468 -0.0311,-2.3689 0.0649,-3.85639 1.56155,-5.15013 1.49668,-1.29373 2.83502,-2.44832 6.58143,-1.74711 3.74641,0.70121 14.49639,3.85528 17.84343,4.69159 3.34705,0.83631 14.60884,3.02033 19.9431,4.85952 3.63935,1.2548 6.32252,2.15114 10.58426,3.79051 3.30325,1.27067 7.64938,3.53504 9.09942,3.84429 3.32084,0.70823 3.92853,-0.66698 4.23117,-1.79644"
         sodipodi:nodetypes="csssssccsssssc"
         inkscape:label="MiddleUp"
         transform="matrix(0.2270142,0.97392334,-0.96717329,0.22859857,141.35982,-234.84032)" /></g><g
       inkscape:groupmode="layer"
       id="g1355"
       inkscape:label="MiddleRingSimpleJoint"
       style="display:none"
       export-hand-poses="middle,add-link"><path
         id="path1353"
         style="display:inline;fill:#ffffff;fill-opacity:1;stroke:#000000;stroke-width:1"
         d="m 282.4242,156.22739 c 0,0 -3.93216,-0.14058 -9.22398,-0.9257 -2.03806,-0.30238 -6.72097,-1.07797 -9.09672,-1.52267 -2.41009,-0.45113 -6.79136,-0.9532 -9.61604,-1.25527 -5.06211,-0.54136 -12.98032,-1.61214 -17.56402,-2.0227 -11.39419,-1.02058 -17.25133,-1.03289 -17.6741,-1.1675 -1.02421,-0.3261 -3.4595,-0.58081 -3.71318,-3.87213 -0.25367,-3.29132 1.13654,-6.84021 4.66069,-7.28008 3.52414,-0.43986 13.26209,-1.59129 16.27042,-1.5012 3.00833,0.09 11.41354,-0.56221 17.61994,0.11222 6.20638,0.67443 18.71994,1.30544 22.96729,2.13709 4.24735,0.83166 11.00049,1.28202 11.47492,-0.75719"
         sodipodi:nodetypes="cssssssscssc"
         inkscape:label="MiddleRingSimpleJoint"
         transform="matrix(0.2270142,0.97392334,-0.96717329,0.22859857,141.35982,-234.84032)" /></g><g
       inkscape:groupmode="layer"
       id="g1359"
       inkscape:label="MiddleIndexSimpleJoint"
       style="display:none"
       export-hand-poses="middle,abd-link"><path
         id="path1357"
         style="display:inline;fill:#ffffff;fill-opacity:1;stroke:#000000;stroke-width:1"
         d="m 282.73194,155.91858 c 0.64543,-0.62947 0.83602,-1.512 0.42494,-2.24437 -1.08446,-1.93209 -5.35523,-3.84949 -9.0039,-5.04334 -5.03175,-1.6464 -10.48042,-3.28811 -19.50592,-8.94769 -9.02549,-5.65959 -18.29396,-8.77878 -23.90998,-11.37175 -5.61601,-2.59298 -7.97117,-3.67065 -7.81516,-8.32052 0.15603,-4.64987 4.97664,-6.25314 8.14093,-5.58461 3.16428,0.66853 16.42415,5.6032 23.51491,8.4559 7.09075,2.8527 11.5246,3.89315 18.14485,7.46958 6.62026,3.57645 15.4833,7.44877 15.4833,7.44877"
         sodipodi:nodetypes="csssscsssc"
         inkscape:label="MiddleIndexSimpleJoint"
         transform="matrix(0.2270142,0.97392334,-0.96717329,0.22859857,141.35982,-234.84032)" /></g><g
       inkscape:groupmode="layer"
       id="g1180"
       inkscape:label="MiddleRingComplexJoint"
       style="display:none"
       export-hand-poses="middle,multi-link"><path
         id="path1178"
         style="display:inline;fill:#ffffff;fill-opacity:1;stroke:#000000;stroke-width:0.996919"
         d="m 56.610372,77.92297 c 0,0 -0.533781,-3.814952 -0.255582,-9.159302 0.10715,-2.058291 0.433273,-6.795497 0.64939,-9.203744 0.219243,-2.443057 0.303232,-6.853517 0.335994,-9.694927 0.05873,-5.092094 0.37214,-13.078853 0.346552,-17.682005 -0.0636,-11.442546 -0.603031,-17.275027 -0.509702,-17.708942 0.226092,-1.051208 0.248681,-3.500369 3.480269,-4.071046 3.23159,-0.570667 6.872759,0.470396 7.639732,3.936479 0.766962,3.466073 2.822942,13.049757 3.017148,16.053517 0.194295,3.003753 1.63098,11.30883 1.54839,17.553025 -0.06946,5.251214 0.311558,14.94049 0.183148,20.452197 -0.02428,1.042217 0.09365,8.994026 0.02645,9.679249"
         sodipodi:nodetypes="cssssssscssc"
         inkscape:label="MiddleRingComplexJoint" /></g></g><g
     inkscape:groupmode="layer"
     id="layer3"
     inkscape:label="Thumb"><g
       inkscape:groupmode="layer"
       id="layer10"
       inkscape:label="ThumbUp"
       style="display:inline"
       export-hand-poses="thumb,up"><path
         id="path1110"
         style="display:inline;fill:#ffffff;fill-opacity:1;stroke:#000000;stroke-width:1"
         transform="matrix(0.25712596,0.96630437,-0.95960713,0.25892048,128.969,-239.16317)"
         d="m 375.82844,213.73795 c 0,0 -11.47454,-7.01215 -12.84791,-7.63694 -1.37337,-0.62479 -6.432,-1.55225 -10.19139,-2.21718 M 332.6903,125.64377 c 2.69886,-1.82892 3.27638,-3.24632 3.12185,-7.14814 -0.15133,-3.82115 -1.29868,-8.58845 -3.66071,-12.10164 -2.36203,-3.51318 -3.44027,-3.8561 -4.06744,-5.81533 -0.62716,-1.959214 -1.18107,-2.881712 -2.05145,-5.17613 -0.87039,-2.294421 -2.57142,-6.863614 -3.00831,-10.103986 -0.4369,-3.240373 -0.60132,-8.135903 1.57592,-9.811733 2.17724,-1.675833 5.03902,-2.547181 7.11974,0.638602 2.08071,3.185781 4.11236,6.655447 6.16619,8.42989 2.05384,1.774444 5.43754,6.110439 6.98796,9.226139 1.55043,3.115702 2.8881,5.715346 5.19632,8.791068 2.30823,3.07573 3.917,6.10805 6.52611,8.59834 2.60911,2.49028 5.39691,5.89253 6.57959,9.30573 1.18268,3.4132 2.4852,14.80056 5.15091,20.57802 m -1.07074,-2.67202 c 2.01128,5.05736 3.50144,7.99489 4.07624,10.18311 0.50221,1.91188 0.59491,3.17709 3.11265,5.9187 2.07334,2.25769 3.59958,2.72666 7.86515,5.02469 3.57076,1.92371 9.02442,4.70734 9.36949,4.89251"
         sodipodi:nodetypes="csccssssssssssssccsssc"
         inkscape:label="ThumbUp" /></g><g
       inkscape:groupmode="layer"
       id="layer9"
       inkscape:label="ThumbClose"
       style="display:none"
       export-hand-poses="thumb,down"><path
         id="path1107"
         style="display:inline;fill:#ffffff;fill-opacity:1;stroke:#000000;stroke-width:1"
         transform="matrix(0.25712596,0.96630437,-0.95960713,0.25892048,128.969,-239.16317)"
         d="m 375.82844,213.73795 c 0,0 -11.47454,-7.01215 -12.84791,-7.63694 -1.37337,-0.62479 -6.432,-1.55225 -10.19139,-2.21718 m -9.42659,-67.95912 c 0,0 -1.95689,1.87242 -3.60273,1.94502 -1.64583,0.0726 -3.30313,0.8269 -4.68797,0.88383 -1.38484,0.0569 -4.81483,0.0795 -5.90734,0.64271 -1.09252,0.56325 -2.90381,0.9339 -3.71966,1.74249 -0.81586,0.80858 -1.78304,3.45979 -2.75862,4.22557 -0.97559,0.76578 -4.0036,3.12159 -5.24017,3.90304 -1.23658,0.78145 -4.00359,3.12159 -5.55963,3.81744 -1.55604,0.69585 -4.26305,1.85368 -6.25967,1.31869 -1.99663,-0.53499 -4.08878,-1.35238 -4.4537,-3.50454 -0.36492,-2.15216 -0.31066,-2.9936 1.20412,-4.8133 1.51477,-1.81969 2.19803,-3.09179 3.39907,-5.33794 1.20105,-2.24615 2.11131,-6.2822 2.72043,-7.91657 0.60913,-1.63436 1.73185,-5.18549 2.3081,-6.05827 0.57626,-0.87278 1.72877,-2.61834 3.8068,-3.34552 2.07803,-0.72718 7.34225,-2.48379 9.17495,-2.93431 1.8327,-0.45052 5.86035,-1.42569 8.19364,-1.82768 2.33328,-0.40198 9.91933,-1.87887 12.91867,-2.53038 2.99934,-0.65151 6.13547,0.10321 7.66284,1.11166 1.52736,1.00845 7.12656,3.6023 8.76205,7.72129 1.63549,4.11898 2.08454,4.36737 6.44495,14.60923 m -66.16288,7.41474 0.0303,-0.11295 m 65.62014,-8.49638 c 2.01128,5.05736 3.50144,7.99489 4.07624,10.18311 0.50221,1.91188 0.59491,3.17709 3.11265,5.9187 2.07334,2.25769 3.59958,2.72666 7.86515,5.02469 3.57076,1.92371 9.02442,4.70734 9.36949,4.89251"
         inkscape:label="ThumbClose" /></g></g></svg>
